<svg width="29" height="32" viewBox="0 0 29 32" fill="none" xmlns="http://www.w3.org/2000/svg">
<path d="M17.089 14.153C16.1692 14.153 15.443 14.9438 15.443 15.9282C15.443 16.9125 16.1853 17.7032 17.089 17.7032C18.0088 17.7032 18.735 16.9125 18.735 15.9282C18.735 14.9438 17.9927 14.153 17.089 14.153ZM11.1989 14.153C10.2791 14.153 9.55296 14.9438 9.55296 15.9282C9.55296 16.9125 10.2952 17.7032 11.1989 17.7032C12.1187 17.7032 12.8449 16.9125 12.8449 15.9282C12.861 14.9438 12.1187 14.153 11.1989 14.153Z" fill="white"/>
<path d="M24.9319 0H3.30812C1.48462 0 0 1.48465 0 3.30815V24.9319C0 26.7554 1.48462 28.2401 3.30812 28.2401H21.6076L20.7524 25.2869L22.818 27.1911L24.7705 28.9823L28.2561 32V3.30815C28.2401 1.48465 26.7554 0 24.9319 0ZM18.703 20.8976C18.703 20.8976 18.122 20.2037 17.6379 19.6067C19.7519 19.0096 20.5588 17.7025 20.5588 17.7025C19.8971 18.1382 19.2678 18.4448 18.703 18.6545C17.8961 18.9935 17.1215 19.2032 16.3631 19.3484C14.8139 19.6389 13.3938 19.5583 12.1836 19.3323C11.2637 19.1548 10.473 18.9127 9.81142 18.6384C9.44022 18.4932 9.0368 18.3157 8.63338 18.0897C8.58495 18.0575 8.53658 18.0414 8.48815 18.0091C8.45585 17.9929 8.43971 17.9768 8.42356 17.9768C8.13316 17.8154 7.97178 17.7025 7.97178 17.7025C7.97178 17.7025 8.74633 18.9773 10.7958 19.5905C10.3116 20.2037 9.71455 20.9137 9.71455 20.9137C6.14826 20.8008 4.79273 18.477 4.79273 18.477C4.79273 13.3293 7.11651 9.14975 7.11651 9.14975C9.44022 7.42313 11.6349 7.47149 11.6349 7.47149L11.7963 7.66516C8.89156 8.48815 7.56836 9.76298 7.56836 9.76298C7.56836 9.76298 7.92335 9.56931 8.52044 9.31113C10.2471 8.55273 11.6188 8.35905 12.1836 8.29447C12.2804 8.2784 12.3611 8.26225 12.4579 8.26225C13.4423 8.13316 14.5557 8.10087 15.7176 8.22996C17.2506 8.40749 18.8967 8.85927 20.5749 9.76298C20.5749 9.76298 19.3001 8.55273 16.5567 7.72967L16.7826 7.47149C16.7826 7.47149 18.9935 7.42313 21.3011 9.14975C21.3011 9.14975 23.6248 13.3293 23.6248 18.477C23.6248 18.4609 22.2693 20.7847 18.703 20.8976Z" fill="white"/>
</svg>
