<svg width="256" height="189" viewBox="0 0 256 189" fill="none" xmlns="http://www.w3.org/2000/svg">
<path d="M125.678 63.3806C123.237 63.3813 120.831 63.9514 118.653 65.0451C119.425 64.8329 120.222 64.7253 121.022 64.725C122.189 64.725 123.345 64.9533 124.423 65.3968C125.502 65.8402 126.482 66.4903 127.307 67.3097C128.132 68.1292 128.787 69.102 129.233 70.1727C129.68 71.2434 129.91 72.391 129.91 73.5499C129.91 74.7088 129.68 75.8563 129.233 76.927C128.787 77.9977 128.132 78.9705 127.307 79.79C126.482 80.6094 125.502 81.2595 124.423 81.703C123.345 82.1465 122.189 82.3747 121.022 82.3747C119.855 82.3747 118.7 82.1465 117.621 81.703C116.543 81.2595 115.563 80.6094 114.738 79.79C113.913 78.9705 113.258 77.9977 112.811 76.927C112.365 75.8563 112.135 74.7088 112.135 73.5499C112.136 72.3523 112.382 71.1674 112.859 70.0675C111.066 72.6483 110.105 75.7094 110.104 78.8449C110.104 82.9463 111.744 86.8797 114.665 89.7799C117.586 92.68 121.547 94.3093 125.678 94.3093C129.808 94.3093 133.77 92.68 136.691 89.7799C139.611 86.8797 141.252 82.9463 141.252 78.8449C141.252 74.7435 139.611 70.8101 136.691 67.9099C133.77 65.0098 129.808 63.3806 125.678 63.3806Z" fill="white"/>
<path d="M206.757 140.869C206.757 140.869 200.979 145.457 199.001 156.778C214.51 162.618 218.393 164.147 218.393 164.147C219.59 171.516 224.857 176.271 230.842 177.935C251.65 184.182 255.301 187.171 255.892 188.199C245.798 137.376 224.024 151.794 224.024 151.794L206.757 140.869ZM255.892 188.199C255.921 188.345 255.951 188.485 255.98 188.632C255.98 188.632 256.063 188.497 255.892 188.199Z" fill="white"/>
<path fill-rule="evenodd" clip-rule="evenodd" d="M125.678 63.3806C123.237 63.3813 120.831 63.9514 118.653 65.0451C119.425 64.8329 120.222 64.7253 121.022 64.725C122.189 64.725 123.345 64.9533 124.423 65.3968C125.502 65.8402 126.482 66.4903 127.307 67.3097C128.132 68.1292 128.787 69.102 129.233 70.1727C129.68 71.2434 129.91 72.391 129.91 73.5499C129.91 74.7088 129.68 75.8563 129.233 76.927C128.787 77.9977 128.132 78.9705 127.307 79.79C126.482 80.6094 125.502 81.2595 124.423 81.703C123.345 82.1465 122.189 82.3747 121.022 82.3747C119.855 82.3747 118.7 82.1465 117.621 81.703C116.543 81.2595 115.563 80.6094 114.738 79.79C113.913 78.9705 113.258 77.9977 112.811 76.927C112.365 75.8563 112.135 74.7088 112.135 73.5499C112.136 72.3523 112.382 71.1674 112.859 70.0675C111.066 72.6483 110.105 75.7094 110.104 78.8449C110.104 82.9463 111.744 86.8797 114.665 89.7799C117.586 92.68 121.547 94.3093 125.678 94.3093C129.808 94.3093 133.77 92.68 136.691 89.7799C139.611 86.8797 141.252 82.9463 141.252 78.8449C141.252 74.7435 139.611 70.8101 136.691 67.9099C133.77 65.0098 129.808 63.3806 125.678 63.3806Z" fill="white"/>
<path fill-rule="evenodd" clip-rule="evenodd" d="M125.678 63.3806C123.237 63.3813 120.831 63.9514 118.653 65.0451C119.425 64.8329 120.222 64.7253 121.022 64.725C122.189 64.725 123.345 64.9533 124.423 65.3968C125.502 65.8402 126.482 66.4903 127.307 67.3097C128.132 68.1292 128.787 69.102 129.233 70.1727C129.68 71.2434 129.91 72.391 129.91 73.5499C129.91 74.7088 129.68 75.8563 129.233 76.927C128.787 77.9977 128.132 78.9705 127.307 79.79C126.482 80.6094 125.502 81.2595 124.423 81.703C123.345 82.1465 122.189 82.3747 121.022 82.3747C119.855 82.3747 118.7 82.1465 117.621 81.703C116.543 81.2595 115.563 80.6094 114.738 79.79C113.913 78.9705 113.258 77.9977 112.811 76.927C112.365 75.8563 112.135 74.7088 112.135 73.5499C112.136 72.3523 112.382 71.1674 112.859 70.0675C111.066 72.6483 110.105 75.7094 110.104 78.8449C110.104 82.9463 111.744 86.8797 114.665 89.7799C117.586 92.68 121.547 94.3093 125.678 94.3093C129.808 94.3093 133.77 92.68 136.691 89.7799C139.611 86.8797 141.252 82.9463 141.252 78.8449C141.252 74.7435 139.611 70.8101 136.691 67.9099C133.77 65.0098 129.808 63.3806 125.678 63.3806Z" fill="white"/>
<path fill-rule="evenodd" clip-rule="evenodd" d="M21.5107 61.3481C19.5264 61.3705 17.6126 61.6141 15.7979 62.0752C12.2261 62.9827 9.09059 64.7194 6.57037 67.1862C4.05016 69.653 2.19459 72.8016 1.10962 76.4521C0.0246543 80.1027 -0.268467 84.1838 0.246995 88.4624C0.762457 92.741 2.07641 97.1332 4.11382 101.388C6.15124 105.644 8.87221 109.678 12.1214 113.262C15.3706 116.846 19.0843 119.909 23.0506 122.276C27.0168 124.643 31.1579 126.268 35.2375 127.058C38.4621 127.682 41.5984 127.775 44.5352 127.338C44.6153 127.396 44.6897 127.449 44.7641 127.503C44.8512 127.566 44.9381 127.629 45.0341 127.697C45.0843 127.756 45.1356 127.812 45.1881 127.864C46.7337 128.75 51.9143 132.417 51.9143 132.417C87.8819 155.999 129.056 161.5 165.119 149.946C168.314 148.923 171.416 147.435 174.375 145.599C182.402 150.115 190.034 153.98 194.397 155.102C194.71 156.045 195.156 157.016 195.754 158.013L198.051 157.139C198.1 156.524 198.947 147.266 206.33 139.784L205.234 137.002C204.631 137.322 203.821 137.784 202.91 138.376C201.982 137.816 197.264 135.014 189.95 131.445C193.711 126.728 196.759 121.679 198.844 116.894C218.261 70.3572 210.226 10.5272 210.226 10.5272C210.872 10.8887 208.433 0.112682 204.456 0.000835248C204.392 -0.000933968 204.329 0.000123495 204.265 0.00385512C202.665 0.0963017 200.826 1.92854 198.846 6.86994C188.947 31.5686 162.57 45.1842 135.451 50.2954C130.8 47.3382 125.358 45.7312 119.749 45.7312C112.944 45.7312 106.384 48.0966 101.185 52.3688C66.133 49.6883 53.2183 13.518 53.2183 13.518L51.5851 58.6036C48.8332 62.6873 47.3224 67.5131 47.2968 72.4962C44.7429 70.1431 41.9727 68.0872 39.0646 66.4007C33.2781 63.0449 27.1869 61.2916 21.5107 61.3481ZM164.626 119.67C163.09 111.673 152.409 107.297 144.47 104.902L151.917 112.803C134.84 123.474 126.942 124.725 91.6526 123.224C107.585 128.447 133.47 131.829 143.413 127.324C143.625 125.317 144.904 118.018 152.341 117.005C158.021 116.231 162.331 118.217 164.626 119.67ZM136.507 58.0027C132.063 53.5895 126.034 51.1102 119.749 51.1102C113.463 51.1102 107.435 53.5895 102.99 58.0027C98.5459 62.416 96.0489 68.4016 96.0489 74.6428C96.0489 80.884 98.5459 86.8696 102.99 91.2829C107.435 95.6961 113.463 98.1754 119.749 98.1754C126.034 98.1754 132.063 95.6961 136.507 91.2829C140.952 86.8696 143.449 80.884 143.449 74.6428C143.449 68.4016 140.952 62.416 136.507 58.0027ZM72.689 92.46C76.6559 92.4577 80.5322 91.2826 83.824 89.0846C87.109 86.8912 89.6633 83.7782 91.1632 80.141C91.1325 79.9837 91.1031 79.8261 91.075 79.6682C90.9259 80.2051 90.7433 80.7334 90.5278 81.2501C89.843 82.8918 88.8392 84.3835 87.5737 85.64C86.3083 86.8965 84.806 87.8932 83.1526 88.5732C81.4992 89.2533 79.7271 89.6033 77.9375 89.6033C74.3233 89.6033 70.857 88.1777 68.3013 85.64C65.7457 83.1024 64.3099 79.6606 64.3099 76.0718C64.3106 72.8668 65.457 69.7661 67.545 67.3219C66.8699 68.4732 66.5129 69.781 66.5103 71.1131C66.5103 72.1065 66.7074 73.0901 67.0902 74.0078C67.4731 74.9255 68.0343 75.7594 68.7417 76.4618C69.4491 77.1642 70.2889 77.7213 71.2132 78.1014C72.1375 78.4815 73.1281 78.6771 74.1285 78.677C76.1488 78.677 78.0864 77.8801 79.515 76.4616C80.9435 75.0431 81.7461 73.1192 81.7462 71.1131C81.7461 69.1071 80.9435 67.1832 79.515 65.7647C78.0864 64.3462 76.1488 63.5493 74.1285 63.5492C73.5007 63.5515 72.8756 63.6308 72.2673 63.7853C74.0453 62.9708 75.9791 62.5463 77.9371 62.5407C79.7267 62.5407 81.4992 62.8904 83.1526 63.5704C84.806 64.2504 86.3083 65.2471 87.5737 66.5037C88.8392 67.7602 89.843 69.2519 90.5278 70.8936C90.6233 71.1225 90.7123 71.3537 90.7948 71.5869C90.9712 69.9389 91.2892 68.3161 91.742 66.7353C90.4784 62.7011 87.9505 59.1727 84.5263 56.6644C81.0976 54.1527 76.9499 52.7955 72.689 52.7909C67.3912 52.7909 62.3103 54.8806 58.5642 58.6003C54.8181 62.32 52.7135 67.365 52.7135 72.6255C52.7135 77.8859 54.8181 82.9309 58.5642 86.6506C62.3103 90.3703 67.3912 92.46 72.689 92.46ZM40.7239 72.8154C35.0752 68.8128 28.8494 66.6616 23.102 66.7267C21.4399 66.7455 19.8368 66.9495 18.3167 67.3357C15.3248 68.0958 12.6983 69.5506 10.5872 71.6169C8.47612 73.6832 6.92177 76.3206 6.01293 79.3786C5.10408 82.4365 4.85854 85.855 5.29031 89.439C5.72209 93.023 6.82273 96.7022 8.52939 100.267C10.236 103.831 12.5152 107.211 15.2368 110.213C17.9584 113.215 21.0692 115.78 24.3915 117.763C27.7139 119.746 31.1827 121.107 34.5999 121.769C38.0171 122.43 41.3157 122.379 44.3075 121.619C47.2995 120.859 49.926 119.404 52.0371 117.338C54.1482 115.272 55.7025 112.634 56.6114 109.576C57.5202 106.518 57.7658 103.1 57.334 99.5158C56.9832 96.6045 56.1912 93.6304 54.9914 90.706C54.7142 90.0303 54.4152 89.3573 54.0949 88.6883C51.0965 82.4259 46.3725 76.8181 40.7239 72.8154ZM167.18 142.843L143.669 127.133L144.029 126.776C143.998 126.878 143.97 126.975 143.946 127.068C143.946 127.068 155.758 134.765 168.354 142.14C167.966 142.376 167.575 142.61 167.18 142.843ZM153.076 117.793C153.755 117.755 154.463 117.828 155.198 118.035C166.486 121.224 176.681 125.306 184.734 128.982C184.924 128.767 185.11 128.552 185.293 128.336C168.18 120.445 153.395 117.476 153.395 117.476L153.076 117.793Z" fill="white"/>
</svg>