<svg width="32" height="32" viewBox="0 0 32 32" fill="none" xmlns="http://www.w3.org/2000/svg">
<path fill-rule="evenodd" clip-rule="evenodd" d="M16 32C24.8366 32 32 24.8366 32 16C32 7.16344 24.8366 0 16 0C7.16344 0 0 7.16344 0 16C0 24.8366 7.16344 32 16 32ZM6.01 10C6.01 8.9 6.9 8 8 8H24C25.1 8 26 8.9 26 10V22C26 23.1 25.1 24 24 24H8C6.9 24 6 23.1 6 22L6.01 10ZM24 21C24 21.55 23.55 22 23 22H9C8.45 22 8 21.55 8 21V12L14.94 16.34C15.59 16.75 16.41 16.75 17.06 16.34L24 12V21ZM16 15L8 10H24L16 15Z" fill="white"/>
</svg>
