<svg width="16" height="16" viewBox="0 0 16 16" fill="none" xmlns="http://www.w3.org/2000/svg">
<path d="M8 15.75C12.2802 15.75 15.75 12.2802 15.75 8C15.75 3.71979 12.2802 0.25 8 0.25C3.71979 0.25 0.25 3.71979 0.25 8C0.25 12.2802 3.71979 15.75 8 15.75Z" fill="black"/>
<path d="M8 0.909546C4.08407 0.909546 0.909576 4.08404 0.909576 7.99997C0.909576 8.52492 0.966625 9.03655 1.07486 9.52899L2.97817 7.37628C2.81844 7.20929 2.74505 6.77 2.7094 6.55659L2.70937 6.55641C2.70606 6.5366 2.70308 6.51873 2.70038 6.50322C2.75594 6.59053 2.95436 6.71752 3.03373 6.73339C3.12605 6.75801 3.20405 6.75877 3.27513 6.75416C3.3129 6.8374 3.363 6.92822 3.42415 7.02439C3.98228 6.75652 5.05404 6.70882 6.58153 8.67794C7.24006 8.2771 8.60223 7.97954 9.1369 8.37327C8.85308 8.50058 8.39173 8.82482 8.01185 9.10606C7.83952 9.23364 7.68395 9.35237 7.56933 9.43985L7.56923 9.43993L7.56906 9.44006L7.56896 9.44014L7.56062 9.44651C7.51926 9.47808 7.48352 9.50534 7.4546 9.52719C7.3677 9.59671 7.27471 9.66927 7.17697 9.74555C7.05153 9.84344 6.91825 9.94744 6.77996 10.059C5.49382 11.1201 4.92781 12.3621 4.73105 13.5212C4.67601 13.7631 4.64255 14.005 4.62195 14.2355C5.11751 14.5046 5.64874 14.7162 6.20672 14.8617C6.66633 13.9144 7.32744 12.8772 8.20861 12.2178C8.5583 10.6831 8.59626 9.7718 8.59839 9.48826L5.48367 12.233C5.79458 11.5698 6.27529 10.9152 6.99425 10.3209C7.22804 10.1261 7.45418 9.95419 7.65013 9.80527L7.65024 9.80519L7.65043 9.80504L7.65051 9.80498L7.66096 9.79705C7.70599 9.76166 7.76088 9.71686 7.82399 9.66515L7.85154 9.64257C8.10693 9.43322 8.48411 9.12402 8.8865 8.86396C9.0373 8.76649 9.19165 8.67593 9.34444 8.60011C9.36652 8.65166 9.37417 8.70773 9.36741 8.76525C9.35947 8.80493 9.34359 8.82874 9.31978 8.85255L8.90475 9.21829C8.92361 9.64056 8.93912 10.224 8.90706 10.6225C8.8515 11.313 8.63721 12.448 8.63721 12.448C8.63721 12.448 7.49429 13.5115 7.40698 13.9719C7.84351 13.6068 8.24036 13.5909 8.24036 13.5909L8.01085 15.0904C11.3804 15.0853 14.199 12.7298 14.9147 9.57564C14.6273 8.11965 14.2457 6.66201 13.9497 5.83095C14.0661 5.75622 14.1828 5.68068 14.2978 5.60588L14.3201 5.63809C14.6326 6.42899 14.8836 7.23911 15.0901 8.0669C15.0903 8.04462 15.0904 8.02231 15.0904 7.99997C15.0904 6.87755 14.8296 5.81604 14.3653 4.87274C14.155 5.01185 13.9399 5.14527 13.7248 5.273C13.2746 5.54027 12.812 5.79507 12.3425 6.00979C12.2822 6.03738 12.2217 6.0643 12.1612 6.0905C11.6294 6.32067 11.0659 6.51909 10.5262 6.55878C10.2563 6.57465 10.0024 6.55084 9.796 6.4556C9.74838 6.43179 9.69282 6.40004 9.65313 6.36829L9.47059 6.23336C9.35947 6.14606 9.20073 6.04288 9.0658 5.96351C8.51022 5.63016 7.89114 5.4238 7.24824 5.35236C6.93077 5.32062 6.60535 5.31268 6.28787 5.35236C5.9704 5.37618 5.66086 5.44761 5.35132 5.53491C5.04971 5.63016 4.75605 5.74127 4.47825 5.88414C4.37855 5.93264 4.28526 5.98114 4.19495 6.02809L4.1949 6.02812C4.01922 6.11945 3.85484 6.20491 3.67662 6.27305C3.54169 6.32861 3.40677 6.36829 3.28771 6.3921C3.25636 6.39658 3.22248 6.39853 3.19321 6.39796C3.1706 6.39751 3.15074 6.39556 3.13691 6.3921C3.12451 6.3859 3.11816 6.38455 3.11456 6.38378C3.11278 6.3834 3.11167 6.38316 3.11083 6.38255C3.10944 6.38154 3.10879 6.37951 3.10707 6.37414L3.10704 6.37404L3.106 6.37083L3.10516 6.36829C3.06979 6.24645 3.16092 6.11294 3.26195 6.00918C3.36493 5.90342 3.4782 5.82858 3.4782 5.82858L3.24009 5.24125L3.44645 5.09838C3.7003 4.88803 3.96407 4.70358 4.23433 4.54098C5.56525 3.74026 7.05345 3.46955 8.28795 3.245C9.04439 3.1074 9.70558 2.98713 10.177 2.77286C10.3692 2.68519 10.5481 2.56174 10.7141 2.41223C10.9292 2.21838 11.1227 1.98072 11.2957 1.7204C10.3111 1.20258 9.18975 0.909546 8 0.909546Z" fill="black"/>
<path d="M7.49429 14.9402C7.54191 14.7497 7.58953 14.5671 7.62921 14.3846C7.40856 14.562 7.06289 14.7465 6.70666 14.9727C6.92228 15.0125 7.14133 15.0424 7.36332 15.0622C7.40636 15.0213 7.45002 14.9806 7.49429 14.9402Z" fill="black"/>
<path d="M5.81573 5.8817C5.86329 6.41831 6.31909 6.84456 6.86725 6.84456C7.37089 6.84456 7.79282 6.4944 7.90285 6.02928C7.77714 5.98609 7.64917 5.94903 7.51944 5.9181C7.45518 6.21691 7.18531 6.43978 6.86725 6.43978C6.51829 6.43978 6.23459 6.17149 6.21019 5.82898C6.07821 5.84026 5.94647 5.8581 5.81573 5.8817Z" fill="black"/>
<path d="M12.1612 6.09051C12.693 5.86034 13.2168 5.57461 13.7248 5.273C13.9399 5.14528 14.155 5.01186 14.3653 4.87275C13.7781 3.67978 12.8654 2.67588 11.7431 1.97693C11.2807 2.69735 10.5775 3.57833 9.78808 3.82054C8.12982 4.32452 7.13091 4.40758 6.37064 4.4708C5.30791 4.55917 4.71144 4.60877 3.43217 5.715L3.47822 5.82859C3.47822 5.82859 3.03375 6.12225 3.10518 6.3683C3.10849 6.3782 3.10904 6.38124 3.11085 6.38256C3.11339 6.3844 3.11839 6.38284 3.13693 6.39211C3.16868 6.40005 3.23218 6.40005 3.28773 6.39211C3.40679 6.3683 3.54172 6.32861 3.67664 6.27306C3.85488 6.20491 4.01927 6.11945 4.19496 6.02811C4.28527 5.98116 4.37857 5.93265 4.47827 5.88415C4.75607 5.74128 5.04973 5.63016 5.35134 5.53492C5.66088 5.44761 5.97042 5.37618 6.28789 5.35237C6.60537 5.31269 6.93079 5.32063 7.24826 5.35237C7.89116 5.4238 8.51024 5.63016 9.06582 5.96352C9.20075 6.04289 9.35949 6.14607 9.47061 6.23337L9.65315 6.3683C9.69284 6.40005 9.7484 6.43179 9.79602 6.45561C10.0024 6.55085 10.2564 6.57466 10.5262 6.55879C11.0659 6.5191 11.6295 6.32068 12.1612 6.09051Z" fill="black"/>
<path d="M2.97816 7.36838C2.97816 7.36838 4.24807 5.66988 6.58153 8.67798C7.24006 8.27713 8.60222 7.97958 9.13689 8.3733C8.6737 8.58108 7.73764 9.31337 7.45459 9.52723C7.25616 9.68597 7.02599 9.86058 6.77995 10.059C5.49382 11.1202 4.9278 12.3621 4.73104 13.5213C4.50565 14.5119 4.64207 15.5027 4.54174 15.7101L1.33521 12.5353C0.724071 11.9242 0.0811781 10.6225 0.676448 9.97963L2.97816 7.37632L2.97245 7.37054L2.97816 7.36838Z" fill="black"/>
<path d="M5.02589 8.96368C4.81159 9.21766 3.6528 8.55096 3.31151 8.3446C3.27183 8.32079 3.27976 8.26523 3.32739 8.24936C3.60518 8.16999 4.32744 7.96363 4.62904 8.043C5.01002 8.15411 5.27987 8.67002 5.02589 8.96368Z" fill="black"/>
<path d="M4.79575 8.76526C4.62113 8.96368 3.56552 8.35254 3.56552 8.30491C3.56552 8.24936 4.27191 8.07474 4.52589 8.14618C4.78781 8.20967 4.97036 8.5589 4.79575 8.76526Z" fill="black"/>
<path d="M13.9232 4.36026L13.9312 4.35232C13.9733 4.3339 14.0075 4.30589 14.0325 4.27204C13.6694 3.68582 13.2233 3.15646 12.7106 2.70038L11.3755 3.06654C11.2802 3.09035 11.2167 3.19353 11.2405 3.28878V3.29671L11.6215 4.95553C11.6215 4.96347 11.6294 4.97934 11.6294 4.98728C11.6771 5.10633 11.804 5.16982 11.9231 5.1222H11.931L13.9073 4.3682L13.9232 4.36026Z" fill="black"/>
<path d="M3.44644 5.09844L3.24008 5.2413L3.43214 5.71504C4.71141 4.60882 5.30788 4.55922 6.37061 4.47085C7.13089 4.40763 8.12979 4.32457 9.78805 3.82059C10.5775 3.57838 11.2807 2.6974 11.7431 1.97697C11.5974 1.88625 11.4482 1.80066 11.2957 1.72046C10.9893 2.18157 10.6185 2.57157 10.177 2.77292C9.70558 2.98718 9.04439 3.10745 8.28794 3.24505C6.80276 3.51521 4.9504 3.85215 3.44644 5.09844Z" fill="black"/>
<path d="M13.8121 4.11422L11.8517 4.89998L11.7247 4.43169L13.6184 3.67419C13.6513 3.71681 13.6837 3.7598 13.7156 3.80317L13.8121 4.11422Z" fill="black"/>
<path d="M11.5739 3.85234L11.7247 4.43173L13.6184 3.67424C13.5145 3.53948 13.4059 3.40856 13.2927 3.28174L11.5739 3.85234Z" fill="black"/>
<path d="M12.0421 6.50327C11.6294 6.65408 11.3358 6.82869 11.1611 6.87631C11.1135 6.89218 11.0818 6.93981 11.0897 6.99536C11.6215 10.9241 12.0263 11.1067 12.2406 11.194C12.4628 11.2813 13.2486 10.813 13.3359 10.5829C13.5184 10.059 12.3993 9.74948 12.1374 6.56677C12.1295 6.51915 12.0898 6.4874 12.0421 6.50327ZM11.8675 9.41613C11.8913 9.26533 12.0342 9.15421 12.185 9.17802C12.3358 9.20183 12.439 9.33676 12.4231 9.4955C12.3993 9.6463 12.2644 9.74948 12.1136 9.73361C11.9548 9.7098 11.8437 9.56693 11.8675 9.41613ZM12.4946 10.7019C12.3279 10.6781 12.2088 10.5273 12.2326 10.3606C12.2564 10.194 12.4072 10.0828 12.5739 10.0987C12.7406 10.1225 12.8517 10.2733 12.8358 10.44C12.812 10.6067 12.6612 10.7257 12.4946 10.7019Z" fill="black"/>
<path d="M9.31978 8.8526C9.34359 8.82879 9.35947 8.80498 9.3674 8.7653C9.37417 8.70779 9.36652 8.65171 9.34444 8.60016C8.66457 8.93753 7.95409 9.56678 7.66096 9.7971L7.65048 9.80506C7.45445 9.95404 7.22818 10.126 6.99426 10.3209C6.2753 10.9152 5.79459 11.5699 5.48367 12.2331L9.31978 8.8526Z" fill="black"/>
<path d="M8.63721 12.448C8.63721 12.448 8.85151 11.313 8.90706 10.6225C8.93912 10.224 8.92361 9.64057 8.90475 9.2183L8.59839 9.48827C8.59627 9.77181 8.5583 10.6831 8.20862 12.2178C7.32744 12.8772 6.66634 13.9144 6.20673 14.8617C6.37112 14.9045 6.53784 14.9416 6.70666 14.9727C7.0629 14.7465 7.40856 14.562 7.62922 14.3846C7.58953 14.5672 7.54191 14.7497 7.49429 14.9402C7.45002 14.9806 7.40637 15.0213 7.36332 15.0622C7.57306 15.0809 7.78542 15.0904 8.00001 15.0904L8.01085 15.0904L8.24036 13.5909C8.24036 13.5909 7.84351 13.6068 7.40698 13.9719C7.49429 13.5115 8.63721 12.448 8.63721 12.448Z" fill="black"/>
<path d="M14.3201 5.6381L14.2978 5.6059C14.1828 5.68069 14.0661 5.75623 13.9497 5.83096C14.2457 6.66202 14.6273 8.11965 14.9147 9.57564C15.025 9.08979 15.0853 8.58499 15.0901 8.06691C14.8836 7.23912 14.6326 6.429 14.3201 5.6381Z" fill="black"/>
</svg>
