<svg width="256" height="250" viewBox="0 0 256 250" fill="none" xmlns="http://www.w3.org/2000/svg">
<path fill-rule="evenodd" clip-rule="evenodd" d="M45.3333 0H210.667C235.733 0 256 20.2667 256 45.3333V204.267C256 229.333 235.733 249.6 210.667 249.6H45.3333C20.2667 249.6 0 229.333 0 204.267V45.3333C0 20.2667 20.2667 0 45.3333 0ZM57.5999 175.04V65.2797C57.5999 64.5331 57.9199 64.1064 58.6666 64.1064C60.4799 64.1064 62.1866 64.1064 64.6399 63.9997C65.9583 63.9448 67.3049 63.9182 68.6944 63.8907C70.0031 63.8648 71.3497 63.8381 72.7466 63.7864C74.2362 63.7312 75.7828 63.7046 77.3866 63.677L77.3893 63.6769C78.8854 63.6512 80.4312 63.6245 82.0266 63.5731C85.3332 63.4664 88.5332 63.4664 91.7332 63.4664C100.48 63.4664 107.733 64.5331 113.707 66.7731C119.04 68.5864 123.947 71.5731 128 75.5197C131.413 78.9331 134.08 83.0931 135.787 87.6797C137.387 92.1597 138.24 96.7464 138.24 101.546C138.24 110.72 136.107 118.293 131.84 124.266C127.573 130.24 121.6 134.72 114.667 137.28C107.413 139.946 99.4132 140.906 90.6666 140.906C88.1066 140.906 86.3999 140.906 85.3332 140.8C84.2666 140.693 82.7732 140.693 80.7466 140.693V174.933C80.8532 175.68 80.3199 176.32 79.5732 176.426H79.1466H58.8799C58.0266 176.426 57.5999 176 57.5999 175.04ZM80.8532 120.533V84.6931C81.5999 84.5864 83.0932 84.4797 85.2266 84.5864C87.2532 84.4797 89.7066 84.4797 92.4799 84.4797C96.8532 84.3731 101.12 85.0131 105.067 86.6131C108.16 87.7864 110.72 89.9197 112.533 92.6931C114.24 95.5731 115.093 98.8797 114.987 102.186C114.987 106.88 113.92 110.506 111.68 113.173C109.333 115.84 106.347 117.866 102.933 118.826C98.9866 120.106 94.8266 120.746 90.6666 120.746H85.0132C83.8251 120.746 82.5451 120.655 81.1732 120.556L80.8532 120.533ZM194.56 110.4C198.187 111.147 201.6 112.32 204.8 114.027C205.227 114.24 205.76 114.24 206.72 114.027C207.04 113.814 207.253 113.387 207.253 112.96V95.5736C207.253 95.1469 207.147 94.7203 207.04 94.2936C206.827 93.8669 206.4 93.4403 205.973 93.3336C203.093 92.1603 200 91.3069 196.8 90.8803C192.427 90.2403 187.947 89.9203 183.573 89.9203C176 89.9203 169.707 91.0936 164.693 93.6536C160.107 95.7869 156.16 99.2003 153.493 103.467C151.147 107.414 149.867 111.787 149.867 116.374C149.76 120.107 150.613 123.84 152.32 127.254C154.347 130.88 157.12 133.974 160.427 136.32C165.12 139.52 170.133 142.08 175.573 144C180.8 146.027 184.32 147.627 186.027 149.014C187.733 150.4 188.587 151.787 188.587 153.28C188.587 155.2 187.413 157.014 185.707 157.76C183.787 158.72 180.907 159.254 176.853 159.254C172.587 159.254 168.32 158.72 164.267 157.654C159.573 156.587 155.2 154.88 151.04 152.427C150.72 152.214 150.4 152.107 150.08 152.32C149.76 152.534 149.653 152.96 149.653 153.28V171.84C149.547 172.694 150.08 173.44 150.827 173.867C154.24 175.467 157.973 176.64 161.707 177.28C166.507 178.24 171.307 178.667 176.213 178.667C183.893 178.667 190.293 177.494 195.52 175.254C200.32 173.334 204.48 170.027 207.467 165.76C210.24 161.6 211.733 156.587 211.627 151.574C211.733 147.734 210.88 144 209.173 140.587C207.147 136.96 204.267 133.974 200.747 131.734C195.627 128.534 190.08 125.867 184.32 123.947C181.76 122.88 179.2 121.707 176.747 120.427C175.36 119.68 174.08 118.72 173.12 117.547C172.48 116.694 172.053 115.734 172.053 114.774C172.053 113.814 172.373 112.747 172.907 111.894C173.653 110.827 174.827 110.08 176.213 109.76C178.24 109.227 180.48 108.907 182.613 109.014C186.667 109.014 190.613 109.547 194.56 110.4Z" fill="white"/>
</svg>