<svg width="513" height="512" viewBox="0 0 513 512" fill="none" xmlns="http://www.w3.org/2000/svg">
<g clip-path="url(#clip0)">
<path d="M249.011 34.4208C265.015 122.452 286.997 171.762 314.958 182.351C335.732 190.219 326.978 237.238 275.96 301.678C268.79 310.734 273.896 338.304 261.63 341.37C251.414 343.922 234.958 326.439 221.773 338.746C203.916 332.564 161.977 298.46 180.195 188.048C187.264 145.203 199.403 106.715 218.592 71.9217C225.354 59.6608 235.494 47.1604 249.011 34.4208Z" fill="black"/>
<path fill-rule="evenodd" clip-rule="evenodd" d="M298.471 363.329L248.176 348.991C221.808 342.262 206.167 336.428 201.252 331.491C193.879 324.086 189.257 316.264 192.799 313.711C198.704 309.453 207.223 305.743 218.355 302.583C212.46 302.884 209.862 302.58 210.562 301.671C212.151 299.608 220.609 293.506 235.934 283.365C241.899 277.413 245.56 273.496 246.916 271.614C248.639 269.221 237.541 270.11 230.875 270.11C239.135 258.698 248.176 253.739 258.726 251.226C261.136 249.271 263.692 246.501 266.394 242.914C261.946 241.893 258.655 241.382 256.519 241.382C259.426 236.325 267.203 229.485 279.852 220.864L270.879 223.407C273.968 217.7 277.121 213.296 280.337 210.195C283.553 207.093 286.653 205.028 289.638 203.998C295.47 190.742 299.113 181.878 300.566 177.406C302.019 172.934 302.135 170.229 300.914 169.293L279.607 144.139L345.11 150.601L350.696 168.678L362.795 243.206L366.15 373.239L331.136 390.043C327.178 393.403 323.135 392.646 321.741 390.696L298.471 363.329Z" fill="#CECDC4"/>
<path fill-rule="evenodd" clip-rule="evenodd" d="M265.792 150.416C271.085 133.387 310.696 120.413 328.315 126.137C340.061 129.954 346.61 143.623 347.964 167.144C349.429 173.9 347.358 204.669 343.116 222.813C344.406 225.583 349.134 233.632 348.656 237.317C346.276 233.518 343.283 232.373 343.283 232.373L341.235 244.72C341.235 244.72 347.88 258.972 347.141 261.627C344.841 259.779 341.348 258.043 340.967 257.856L340.933 257.839C340.933 257.839 340.398 273.313 340.043 276.989C343.826 281.897 349.304 298.082 349.304 298.082C349.304 298.082 339.022 286.916 339.11 292.136C339.199 297.35 341.147 316.718 341.147 316.718C341.147 316.718 347.184 327.646 349.995 341.404C346.847 337.542 343.425 333.723 341.299 331.399C340.527 330.554 339.112 331.028 339.027 332.172C337.664 350.393 331.417 377.684 326.79 386.039C321.898 394.872 302.535 394.455 301.04 389.709C299.941 386.218 295.637 370.144 282.578 360.147C293.555 374.297 294.747 395.923 294.747 395.923C289.878 395.676 285.168 395.193 280.637 394.526L272.325 375.04L276.143 393.797C268.332 392.41 261.106 390.502 254.576 388.365L261.659 369.815L250.688 387.038C244.493 384.836 239.008 382.466 234.345 380.213L247.803 365.727L230.322 378.198C221.469 373.602 216.503 369.928 216.503 369.928C216.503 369.928 231.105 354.682 248.571 349.726C237.097 349.15 197.714 338.2 197.913 332.172C197.974 330.335 192.81 317.389 197.913 314.204C208.949 307.317 221.957 304.175 229.896 300.35C230.843 299.894 229.973 297.899 228.709 298.162C225.609 298.809 221.171 299.787 216.887 300.921C227.248 291.443 238.554 286.15 238.554 286.15C238.554 286.15 251.515 271.626 254.652 267.46C257.791 263.288 242.91 266.278 242.91 266.278C242.91 266.278 256.856 256.404 262.8 254.657C264.674 251.475 273.338 238.641 273.338 238.641C273.338 238.641 269.208 237.904 266.087 238.057C267.05 235.475 280.803 227.85 280.803 227.85L286.404 216.658C286.404 216.658 283.309 215.825 279.151 217.499C280.929 214.236 292.158 209.021 292.158 209.021C292.158 209.021 296.54 200.944 298.645 195.888C300.606 191.177 302.826 182.488 303.12 181.325L303.124 181.307L303.106 181.328C302.219 182.206 290.366 183.848 282.104 178.396L281.842 178.22C271.184 170.921 264.429 154.785 265.792 150.416Z" fill="black"/>
<path d="M466.455 217.756C464.88 282.11 438.243 302.415 434.953 308.168C434.953 308.168 443.458 315.413 460.784 322.344C478.111 329.274 508.353 335.575 508.353 335.575C486.616 353.531 417.311 354.161 402.562 347.181C402.562 347.181 394.661 356.044 391.307 359.123C391.307 359.123 398.725 370.857 405.655 376.528C412.586 382.198 431.608 390.526 431.608 390.526C418.256 393.992 386.439 393.539 364.171 385.491C350.072 391.574 335.622 391.49 331.959 391.355C331.53 391.339 331.268 390.914 331.453 390.526C337.036 378.794 343.572 357.407 343.261 342.638C347.184 346.617 354.562 357.69 360.647 371.23C359.233 350.893 349.306 320.584 343.29 303.151C343.318 302.154 343.343 301.165 343.369 300.176L343.387 299.469C346.577 303.097 353.446 310.377 357.952 320.397C356.931 305.705 350.383 286.611 344.427 271.573C344.526 269.549 344.634 267.543 344.745 265.576C347.289 269.205 353.317 275.309 356.371 282.11C355.616 271.203 353.367 258.1 346.042 245.193C346.152 243.669 346.27 242.146 346.374 240.679C348.612 244.106 354.022 248.806 356.597 254.544C355.945 245.133 353.791 232.095 347.323 222.867C349.428 211.613 351.081 200.534 351.68 189.512C351.995 183.723 351.389 177.321 351.035 171.546C360.643 191.736 370.425 202.518 380.381 203.89C395.313 205.948 411.725 180.257 406.104 143.413C402.992 123.003 421.94 106.976 421.94 106.976C424.792 104.415 429.33 105.673 430.456 109.337C430.456 109.337 468.03 153.402 466.455 217.756Z" fill="black"/>
<path fill-rule="evenodd" clip-rule="evenodd" d="M287.148 151.516C288.598 147.056 293.402 144.604 297.859 146.053C299.877 146.709 301.036 149.02 302.058 150.711C303.292 152.753 304.12 154.333 303.327 156.772C301.878 161.233 297.066 163.682 292.602 162.231C288.145 160.783 285.699 155.976 287.148 151.516Z" fill="white"/>
<path d="M295.397 157.708C297.311 157.708 298.863 156.156 298.863 154.242C298.863 152.329 297.311 150.777 295.397 150.777C293.484 150.777 291.932 152.329 291.932 154.242C291.932 156.156 293.484 157.708 295.397 157.708Z" fill="black"/>
<path fill-rule="evenodd" clip-rule="evenodd" d="M285.397 176.142C291.992 174.593 304.871 176.086 306.173 181.602C306.472 182.869 305.632 184.141 304.395 184.547C302.839 185.058 301.061 185.751 299.159 186.564C299.192 186.456 299.208 186.402 299.208 186.402C299.208 186.402 268.593 196.848 262.334 204.35C256.073 211.85 254.368 222.629 252.889 224.187L236.393 192.246C233.249 186.094 231.567 174.702 237.65 171.298L261.276 157.405L261.366 157.402C261.366 157.402 275.114 147.674 285.397 176.142Z" fill="#D18D1E"/>
<path fill-rule="evenodd" clip-rule="evenodd" d="M272.876 174.547C270.607 175.996 263.654 167.949 261.613 165.494C261.384 165.22 261.586 164.797 261.941 164.8C264.221 164.82 270.204 165.007 272.255 166.387C274.818 168.105 275.55 172.845 272.876 174.547Z" fill="#854205"/>
<path fill-rule="evenodd" clip-rule="evenodd" d="M271.872 172.363C270.069 173.545 263.838 166.17 263.977 165.744C264.115 165.317 269.788 165.61 271.494 166.775C273.207 167.938 273.675 171.184 271.872 172.363Z" fill="black"/>
<path fill-rule="evenodd" clip-rule="evenodd" d="M305.938 180.476C305.938 180.476 303.196 181.805 276.6 191.435C271.926 193.127 265.708 201.191 265.708 201.191L306 184.046C306.242 183.944 306.436 183.765 306.542 183.526C306.998 182.492 306.846 181.435 305.938 180.476Z" fill="#854605"/>
<path d="M350.267 93.5219C355.777 97.4708 355.079 104.71 348.174 115.239C345.704 119.005 339.795 125.077 330.445 133.454C329.782 121.6 330.777 113 333.431 107.654C334.612 105.274 336.38 103.02 338.735 100.891L341.838 108.053L341.998 98.2859C344.353 96.6118 347.109 95.0238 350.267 93.5219Z" fill="black"/>
<path d="M330.071 128.91C324.804 123.85 321.657 119.56 320.63 116.04C319.603 112.52 320.193 108.045 322.4 102.614C326.569 102.08 329.282 105.632 330.539 113.27C330.988 116.002 330.832 121.215 330.071 128.91Z" fill="black"/>
<path fill-rule="evenodd" clip-rule="evenodd" d="M299.263 181.927C301.485 182.175 304.221 180.979 307.527 177.865L308.823 179.241C305.397 182.469 302.122 184.148 299.053 183.805C298.185 183.708 297.558 183.802 297.058 183.984C296.551 184.167 296.117 184.461 295.655 184.852C295.462 185.015 295.258 185.204 295.037 185.408C294.267 186.121 293.304 187.012 291.972 187.581C290.284 188.302 289.167 188.359 288.229 188.293C288.021 188.278 287.841 188.261 287.68 188.246C287.112 188.192 286.772 188.16 286.256 188.323C285.515 188.557 284.701 189.05 283.712 189.715C283.508 189.853 283.297 189.997 283.08 190.145C282.283 190.689 281.401 191.292 280.462 191.825C279.223 192.528 277.901 192.736 276.826 192.906C276.745 192.919 276.666 192.931 276.588 192.944C275.396 193.135 274.596 193.318 274.01 193.842C273.533 194.269 273.348 194.616 273.087 195.103C272.976 195.311 272.851 195.544 272.685 195.819C272.134 196.73 271.324 197.633 269.475 198.597C267.449 199.653 265.977 201.454 265.092 204.108L263.299 203.51C264.312 200.474 266.069 198.241 268.602 196.921C270.172 196.102 270.712 195.428 271.067 194.841C271.145 194.713 271.224 194.564 271.311 194.402C271.612 193.837 272.004 193.101 272.75 192.433C273.806 191.489 275.16 191.259 276.288 191.078C276.347 191.068 276.405 191.059 276.464 191.05C277.597 190.869 278.6 190.708 279.529 190.181C280.393 189.691 281.189 189.147 281.977 188.609C282.204 188.454 282.43 188.3 282.657 188.147C283.636 187.489 284.655 186.846 285.686 186.52C286.601 186.231 287.376 186.31 287.993 186.373C288.124 186.386 288.247 186.399 288.363 186.407C289.027 186.454 289.84 186.437 291.229 185.843C292.232 185.414 292.872 184.825 293.597 184.157C293.858 183.916 294.13 183.665 294.435 183.408C294.982 182.946 295.612 182.497 296.414 182.207C297.222 181.914 298.146 181.802 299.263 181.927Z" fill="black"/>
<path fill-rule="evenodd" clip-rule="evenodd" d="M319.287 378.763L330.419 401.545C330.419 401.545 336.455 398.818 342.4 402.297C348.672 399.324 357.723 400.689 362.951 405.778C368.181 410.866 370.407 419.098 370.407 419.098C370.407 419.098 373.305 439.303 364.684 446.104C362.543 447.793 362.226 449.943 358.354 442.038C354.482 434.134 321.079 430.721 321.079 430.721C321.079 430.721 305.425 438.219 300.4 428.873C297.677 422.164 299.922 414.864 299.922 414.864C299.922 414.864 302.044 405.778 307.02 403.977C304.629 392.824 301.143 382.67 306.126 379.215C309.526 376.857 317.365 371.551 319.287 378.763Z" fill="#010103"/>
<path fill-rule="evenodd" clip-rule="evenodd" d="M327.655 407.981C327.655 407.981 319.837 403 314.182 404.4C308.527 405.799 305.652 410.217 303.847 415.002C302.042 419.787 307.027 431.777 309.731 432.975C312.436 434.174 314.182 430.335 314.182 420.583C314.182 415.002 328.664 414.738 328.664 414.738L327.655 407.981Z" fill="#CC7910"/>
<path fill-rule="evenodd" clip-rule="evenodd" d="M118.854 508.04C118.854 509.488 120.029 510.662 121.48 510.662H391.558C393.008 510.662 394.184 509.488 394.184 508.04V418.777C394.184 417.329 393.008 416.155 391.558 416.155H121.48C120.029 416.155 118.854 417.329 118.854 418.777V508.04Z" fill="black"/>
<path d="M159.849 489.319C155.238 489.319 151.91 487.895 149.865 485.048C147.86 482.162 146.858 478.012 146.858 472.599V456.24C146.858 450.667 147.9 446.477 149.985 443.67C152.07 440.824 155.659 439.4 160.751 439.4C165.562 439.4 169.01 440.603 171.095 443.009C173.18 445.374 174.223 448.903 174.223 453.594V456.12H165.743V453.353C165.743 451.589 165.622 450.186 165.382 449.143C165.181 448.101 164.72 447.299 163.999 446.738C163.317 446.176 162.274 445.896 160.871 445.896C159.388 445.896 158.285 446.257 157.563 446.978C156.842 447.7 156.36 448.622 156.12 449.745C155.919 450.867 155.819 452.331 155.819 454.135V474.524C155.819 477.29 156.18 479.355 156.902 480.718C157.664 482.081 159.067 482.763 161.112 482.763C163.116 482.763 164.5 482.041 165.262 480.598C166.063 479.154 166.464 476.989 166.464 474.103V469.532H161.232V463.938H174.463V488.657H168.69L168.088 483.906C166.565 487.514 163.818 489.319 159.849 489.319Z" fill="#D18D1F"/>
<path d="M181.235 439.942H192.963C198.095 439.942 201.924 440.924 204.45 442.889C206.976 444.813 208.239 448.141 208.239 452.872C208.239 455.96 207.778 458.486 206.856 460.45C205.974 462.375 204.43 463.778 202.225 464.66L209.021 488.657H200.12L194.286 466.344H190.076V488.657H181.235V439.942ZM192.903 460.811C195.429 460.811 197.213 460.23 198.255 459.067C199.338 457.904 199.879 456 199.879 453.353C199.879 450.787 199.398 448.923 198.436 447.76C197.514 446.597 195.83 446.016 193.384 446.016H190.076V460.811H192.903Z" fill="#D18D1F"/>
<path d="M222.225 439.942H231.727L241.47 488.657H233.231L231.306 477.41H222.826L220.842 488.657H212.482L222.225 439.942ZM230.344 471.757L227.036 451.309L223.728 471.757H230.344Z" fill="#D18D1F"/>
<path d="M246.37 439.942H257.857C261.786 439.942 264.874 440.483 267.119 441.565C269.364 442.608 270.948 444.232 271.87 446.437C272.832 448.602 273.314 451.489 273.314 455.098V472.84C273.314 476.528 272.832 479.515 271.87 481.801C270.948 484.086 269.384 485.81 267.179 486.973C264.974 488.096 261.987 488.657 258.218 488.657H246.37V439.942ZM257.977 482.462C259.942 482.462 261.365 482.122 262.247 481.44C263.129 480.758 263.691 479.816 263.931 478.613C264.172 477.37 264.292 475.546 264.292 473.14V454.496C264.292 452.331 264.152 450.687 263.871 449.564C263.59 448.442 262.989 447.62 262.067 447.099C261.185 446.537 259.781 446.257 257.857 446.257H255.211V482.462H257.977Z" fill="#D18D1F"/>
<path d="M279.847 439.942H294.161C302.461 439.942 306.611 444.553 306.611 453.775C306.611 462.595 302.261 467.006 293.56 467.006H288.688V488.657H279.847V439.942ZM292.117 460.751C294.522 460.751 296.146 460.25 296.988 459.248C297.83 458.205 298.251 456.361 298.251 453.714C298.251 451.79 298.111 450.326 297.83 449.324C297.549 448.282 296.968 447.5 296.086 446.978C295.244 446.457 293.921 446.197 292.117 446.197H288.688V460.751H292.117Z" fill="#F2F2F2"/>
<path d="M316.315 439.942H325.817L335.56 488.657H327.321L325.396 477.411H316.916L314.932 488.657H306.572L316.315 439.942ZM324.434 471.757L321.126 451.309L317.818 471.757H324.434Z" fill="#F2F2F2"/>
<path d="M347.737 439.942H357.239L366.983 488.657H358.743L356.818 477.411H348.338L346.354 488.657H337.994L347.737 439.942ZM355.856 471.757L352.548 451.309L349.241 471.757H355.856Z" fill="#F2F2F2"/>
<path fill-rule="evenodd" clip-rule="evenodd" d="M433.378 112.974C434.028 115.476 439.048 136.286 433.378 136.286C425.123 136.286 439.541 109.509 425.123 128.411C421.388 133.308 407.23 128.411 406.285 144.477C402.505 122.11 415.736 118.308 409.164 119.473C408.368 119.198 398.347 138.1 396.19 140.87C389.368 149.643 350.078 160.437 350.078 160.437C358.491 140.999 367.099 126.956 375.904 118.308C417.941 79.2669 434.252 113.063 433.378 112.974Z" fill="#66AA66"/>
<path fill-rule="evenodd" clip-rule="evenodd" d="M205.616 97.5384C208.453 101.875 241.124 57.4519 245.309 59.2161C251.762 61.9372 259.819 61.5983 269.478 58.1995C260.97 51.4823 256.789 47.851 256.933 47.3056C257.176 46.3882 279.398 53.7924 283.069 54.2853C290.18 55.2463 299.493 27.9181 313.354 38.944C327.215 49.9698 313.039 78.9519 320.914 78.9519C325.25 78.9519 317.764 60.3656 322.489 49.6547C327.215 38.9439 327.562 31.2269 327.562 31.2269C305.847 21.9855 288.638 17.4851 275.934 17.7257C256.477 18.0942 227.037 47.3056 205.616 97.5384Z" fill="#66AA66"/>
<path d="M303.931 216.427L290.082 188.283C287.548 187.837 286.389 188.123 284.527 189.053L295.925 220.144C295.925 220.144 297.037 218.239 299.35 217.401C301.663 216.562 303.931 216.427 303.931 216.427Z" fill="#CF9254"/>
<path fill-rule="evenodd" clip-rule="evenodd" d="M290.718 187.435L305.406 217.285L303.988 217.37L303.987 217.37L303.985 217.37L303.97 217.371C303.956 217.372 303.934 217.374 303.904 217.376C303.845 217.381 303.754 217.389 303.638 217.401C303.404 217.425 303.067 217.466 302.659 217.532C301.839 217.665 300.756 217.897 299.672 218.289C298.685 218.647 297.944 219.237 297.446 219.747C297.199 220.001 297.016 220.23 296.897 220.392C296.838 220.472 296.796 220.535 296.77 220.575C296.757 220.595 296.748 220.61 296.743 220.617L296.74 220.622L296.74 220.623L295.729 222.355L283.348 188.585L284.104 188.207C285.068 187.726 285.925 187.372 286.906 187.218C287.887 187.064 288.924 187.12 290.246 187.352L290.718 187.435ZM302.493 215.645L289.45 189.138C288.491 188.996 287.803 188.991 287.199 189.086C286.715 189.162 286.251 189.307 285.712 189.54L296.246 218.274C296.881 217.657 297.804 216.956 299.028 216.512C300.257 216.067 301.464 215.811 302.357 215.667C302.403 215.659 302.448 215.652 302.493 215.645Z" fill="black"/>
<path d="M305.291 217.221C305.708 216.006 304.195 215.973 303.386 216.109C301.141 216.623 296.406 217.944 295.426 219.123C294.447 220.302 295.759 221.262 296.537 221.595L305.172 238.672L310.66 236.769C308.697 230.759 304.873 218.436 305.291 217.221Z" fill="#C4C4C4"/>
<path fill-rule="evenodd" clip-rule="evenodd" d="M303.568 217.037C302.468 217.29 300.772 217.737 299.237 218.261C298.462 218.526 297.748 218.804 297.179 219.078C296.572 219.371 296.258 219.602 296.153 219.727C296.022 219.886 296.022 219.963 296.022 219.969C296.022 219.982 296.025 220.033 296.095 220.132C296.256 220.361 296.601 220.595 296.909 220.726L297.225 220.861L305.643 237.509L309.475 236.179C308.51 233.199 307.22 229.084 306.175 225.459C305.599 223.462 305.093 221.601 304.757 220.157C304.59 219.437 304.46 218.803 304.386 218.301C304.349 218.05 304.324 217.815 304.316 217.608C304.311 217.456 304.311 217.239 304.365 217.023C304.286 217.01 304.188 217.001 304.073 217C303.896 216.998 303.717 217.014 303.568 217.037ZM306.205 217.467C306.348 217.013 306.363 216.512 306.109 216.055C305.855 215.6 305.433 215.374 305.098 215.262C304.453 215.046 303.69 215.1 303.23 215.177L303.203 215.182L303.176 215.188C302.03 215.45 300.252 215.917 298.627 216.472C297.815 216.75 297.022 217.055 296.357 217.376C295.73 217.679 295.085 218.055 294.7 218.519C294.344 218.947 294.137 219.432 294.132 219.95C294.127 220.46 294.317 220.891 294.55 221.221C294.9 221.716 295.408 222.077 295.838 222.307L304.702 239.836L311.847 237.357L311.559 236.475C310.579 233.477 309.136 228.905 307.991 224.935C307.418 222.948 306.923 221.125 306.598 219.729C306.435 219.029 306.319 218.453 306.256 218.026C306.225 217.811 306.209 217.651 306.205 217.542C306.204 217.507 306.204 217.483 306.205 217.467Z" fill="black"/>
<path fill-rule="evenodd" clip-rule="evenodd" d="M304.109 218.524C304.116 218.697 303.98 218.844 303.806 218.85C300.596 218.974 298.347 220.292 297.652 220.902C297.522 221.017 297.322 221.004 297.208 220.874C297.093 220.743 297.106 220.544 297.236 220.429C298.039 219.724 300.425 218.35 303.782 218.221C303.956 218.214 304.102 218.35 304.109 218.524Z" fill="#666666"/>
<path d="M313.878 239.367C312.845 236.138 309.094 235.481 307.348 235.556C305.602 235.631 299.365 241.11 300.406 251.201C301.387 260.714 305.504 266.213 308.702 266.985C306.934 263.765 308.794 261.203 310.745 257.235C314.647 249.299 315.17 243.404 313.878 239.367Z" fill="#333333"/>
<path d="M314.127 239.772C313.093 236.543 308.484 247.729 306.738 247.804C304.992 247.879 299.614 241.515 300.654 251.606C301.635 261.119 305.753 266.618 308.95 267.39C307.182 264.17 309.042 261.608 310.993 257.64C314.895 249.704 315.418 243.809 314.127 239.772Z" fill="#66AA66"/>
<path fill-rule="evenodd" clip-rule="evenodd" d="M307.742 247.524C307.585 247.686 307.427 247.827 307.27 247.93C307.116 248.031 306.94 248.111 306.752 248.119L306.738 247.804L306.752 248.119C306.451 248.132 306.115 248.01 305.798 247.86C305.471 247.706 305.109 247.496 304.746 247.283L304.745 247.283C303.997 246.845 303.24 246.404 302.582 246.257C302.261 246.185 301.996 246.192 301.781 246.28C301.574 246.365 301.372 246.543 301.206 246.899C300.86 247.638 300.708 249.055 300.968 251.574C301.454 256.293 302.718 260.002 304.243 262.617C305.547 264.852 307.021 266.257 308.341 266.848C307.757 265.416 307.838 264.082 308.277 262.7C308.639 261.557 309.256 260.355 309.936 259.032C310.189 258.54 310.45 258.031 310.71 257.501C314.594 249.603 315.083 243.796 313.827 239.868C313.71 239.503 313.597 239.502 313.58 239.502L313.58 239.502C313.545 239.502 313.478 239.515 313.372 239.579C313.267 239.641 313.144 239.74 313.003 239.879C312.43 240.444 311.721 241.508 310.967 242.716C310.756 243.053 310.543 243.401 310.329 243.749C309.787 244.63 309.244 245.514 308.743 246.242C308.394 246.751 308.055 247.198 307.742 247.524ZM313.588 238.872C314.03 238.878 314.286 239.238 314.427 239.676C315.753 243.821 315.197 249.806 311.276 257.779C311 258.339 310.73 258.866 310.472 259.368C309.803 260.671 309.223 261.801 308.877 262.891C308.41 264.366 308.392 265.719 309.226 267.239L309.569 267.864L308.876 267.696C307.156 267.281 305.269 265.627 303.699 262.935C302.121 260.229 300.835 256.432 300.341 251.638C300.08 249.112 300.21 247.54 300.635 246.632C300.854 246.164 301.159 245.854 301.542 245.697C301.918 245.543 302.325 245.553 302.72 245.642C303.475 245.81 304.301 246.293 305.007 246.706C305.026 246.717 305.045 246.728 305.063 246.739C305.433 246.955 305.77 247.15 306.067 247.29C306.374 247.435 306.589 247.495 306.725 247.49C306.754 247.488 306.819 247.472 306.925 247.403C307.028 247.335 307.149 247.231 307.288 247.087C307.565 246.799 307.88 246.385 308.224 245.885C308.715 245.171 309.245 244.31 309.782 243.435C309.998 243.083 310.216 242.73 310.432 242.382C311.178 241.188 311.925 240.057 312.561 239.43C312.722 239.271 312.886 239.135 313.049 239.037C313.211 238.941 313.394 238.87 313.588 238.872Z" fill="black"/>
<path d="M323.396 126.226C325.909 123.922 321.708 123.806 319.293 124.036C316.909 124.207 311.063 124.337 306.747 123.49C301.351 122.433 295.522 124.334 293.177 127.868C290.832 131.401 284.734 129.513 286.914 132.728C289.095 135.943 294.677 129.352 298.405 128.38C302.133 127.408 298.379 133.152 293.103 138.311C287.827 143.47 289.472 146.399 294.344 146.721C299.215 147.043 299.992 137.431 300.877 134.485C301.762 131.539 306.331 129.421 309.965 128.627C313.598 127.832 320.253 129.106 323.396 126.226Z" fill="#66AA66"/>
<path d="M276.832 146.031C277.431 148.63 278.166 153.58 276.31 152.589C273.991 151.351 273.85 146.034 276.832 146.031Z" fill="#66AA66"/>
<path d="M284.547 137.161C283.601 138.935 281.999 140.131 280.43 139.293C277.827 138.586 285.946 135.401 284.547 137.161Z" fill="#66AA66"/>
<path fill-rule="evenodd" clip-rule="evenodd" d="M337.358 407.981C337.358 407.981 346.153 403 352.516 404.4C358.877 405.799 362.112 410.217 364.142 415.002C366.173 419.787 360.565 431.777 357.523 432.975C354.48 434.174 352.516 430.335 352.516 420.583C352.516 415.002 336.224 414.738 336.224 414.738L337.358 407.981Z" fill="#CC7910"/>
<path fill-rule="evenodd" clip-rule="evenodd" d="M359.193 411.01C356.908 408.792 352.94 409.81 355.135 413.212C357.331 416.613 358.099 416.512 362.05 421.195C363.852 418.042 361.478 413.228 359.193 411.01Z" fill="#010103"/>
<path fill-rule="evenodd" clip-rule="evenodd" d="M317.654 382.666C317.654 382.666 327.458 405.595 333.074 410.168C328.711 414.74 316.46 415.511 310.084 412.287C311.06 403.678 308.993 393.049 307.428 386.67C306.442 382.65 309.523 378.544 313.608 378.927C315.461 379.102 317.075 380.077 317.654 382.666Z" fill="#CC7910"/>
<path fill-rule="evenodd" clip-rule="evenodd" d="M323.637 407.981C323.637 407.981 332.387 403 338.717 404.4C345.046 405.799 348.264 410.217 350.284 415.002C352.304 419.787 346.726 431.777 343.699 432.975C340.671 434.174 338.717 430.335 338.717 420.583C338.717 415.335 319.213 416.019 319.213 416.019L323.637 407.981Z" fill="#CC7910"/>
<path fill-rule="evenodd" clip-rule="evenodd" d="M347.564 420.356C347.564 417.053 343.376 415.72 342.404 417.71C341.431 419.7 342.595 423.381 341.894 430.032C345.645 428.967 347.564 423.659 347.564 420.356Z" fill="#010103" fill-opacity="0.1"/>
<path opacity="0.1" fill-rule="evenodd" clip-rule="evenodd" d="M350.467 416.192C350.467 416.192 349.027 410.093 343.154 407.12C345.753 406.542 348.391 407.6 348.391 407.6C356.39 409.363 358.275 417.407 358.275 417.407L350.467 416.192Z" fill="#010103"/>
<path fill-rule="evenodd" clip-rule="evenodd" d="M311.653 416.207L334.964 417.407C334.964 417.407 318.472 404.043 311.653 416.207Z" fill="#010103" fill-opacity="0.1"/>
<path opacity="0.3" fill-rule="evenodd" clip-rule="evenodd" d="M305.615 386.293C306.274 385.03 307.087 384.024 308.132 383.124C309.159 382.237 310.406 381.517 311.792 381.163C313.176 380.844 314.669 380.888 315.971 381.32C316.658 381.46 317.234 381.816 317.86 382.066C318.436 382.4 318.965 382.792 319.509 383.151C319.94 383.437 320.06 384.019 319.775 384.45C319.511 384.85 318.994 384.982 318.577 384.773L318.462 384.715C317.441 384.205 316.44 383.707 315.405 383.48C314.374 383.186 313.34 383.271 312.371 383.507C311.389 383.726 310.448 384.217 309.615 384.897C308.807 385.576 308.004 386.444 307.423 387.281L307.37 387.358C307.046 387.825 306.406 387.94 305.94 387.616C305.509 387.316 305.378 386.747 305.615 386.293Z" fill="#010103" fill-opacity="0.3"/>
<path opacity="0.3" fill-rule="evenodd" clip-rule="evenodd" d="M306.284 390.567C307.089 389.246 308.054 388.226 309.247 387.342C310.42 386.469 311.794 385.78 313.286 385.454C314.776 385.17 316.353 385.214 317.768 385.634C318.507 385.769 319.146 386.12 319.831 386.362C320.47 386.691 321.066 387.08 321.675 387.436C322.117 387.701 322.262 388.275 321.998 388.718C321.753 389.131 321.238 389.286 320.811 389.091L320.702 389.04C319.551 388.528 318.415 388.034 317.247 387.804C316.082 387.51 314.91 387.59 313.799 387.811C312.676 388.018 311.595 388.506 310.62 389.186C309.671 389.867 308.727 390.754 308.036 391.635L307.977 391.712C307.633 392.163 306.99 392.249 306.541 391.905C306.125 391.585 306.021 391.007 306.284 390.567Z" fill="#010103" fill-opacity="0.3"/>
<path opacity="0.3" fill-rule="evenodd" clip-rule="evenodd" d="M306.951 394.838C307.905 393.458 309.02 392.425 310.361 391.555C311.682 390.697 313.182 390.041 314.779 389.744C316.375 389.492 318.039 389.537 319.564 389.945C320.354 390.076 321.058 390.42 321.8 390.656C322.503 390.98 323.165 391.366 323.841 391.718C324.294 391.962 324.465 392.529 324.221 392.983C323.993 393.409 323.482 393.587 323.045 393.406L322.941 393.362C321.659 392.85 320.389 392.358 319.088 392.124C317.789 391.832 316.481 391.907 315.227 392.112C313.963 392.308 312.741 392.792 311.624 393.472C310.534 394.153 309.449 395.062 308.649 395.987L308.583 396.065C308.22 396.498 307.574 396.555 307.142 396.192C306.739 395.851 306.665 395.266 306.951 394.838Z" fill="#010103" fill-opacity="0.3"/>
<path opacity="0.3" fill-rule="evenodd" clip-rule="evenodd" d="M307.619 399.111C308.72 397.675 309.987 396.627 311.476 395.772C312.943 394.929 314.57 394.305 316.273 394.036C317.974 393.819 319.724 393.864 321.361 394.259C322.202 394.386 322.97 394.725 323.771 394.952C324.536 395.272 325.266 395.654 326.007 396.003C326.472 396.227 326.668 396.785 326.444 397.252C326.234 397.691 325.726 397.891 325.279 397.725L325.18 397.687C323.767 397.174 322.365 396.684 320.93 396.448C319.497 396.157 318.053 396.228 316.656 396.416C315.25 396.601 313.889 397.081 312.63 397.762C311.399 398.444 310.172 399.373 309.262 400.342L309.19 400.421C308.807 400.837 308.159 400.864 307.743 400.481C307.354 400.122 307.308 399.527 307.619 399.111Z" fill="#010103" fill-opacity="0.3"/>
<path opacity="0.3" fill-rule="evenodd" clip-rule="evenodd" d="M308.286 403.385C309.535 401.89 310.954 400.828 312.59 399.988C314.205 399.16 315.959 398.568 317.767 398.327C319.574 398.144 321.409 398.19 323.158 398.573C324.05 398.694 324.882 399.028 325.741 399.248C326.569 399.563 327.366 399.943 328.172 400.287C328.648 400.49 328.871 401.042 328.667 401.519C328.475 401.971 327.971 402.194 327.513 402.043L327.419 402.012C325.876 401.497 324.34 401.011 322.77 400.771C321.204 400.48 319.623 400.547 318.084 400.72C316.537 400.893 315.036 401.369 313.635 402.051C312.263 402.734 310.895 403.683 309.875 404.696L309.796 404.775C309.394 405.175 308.744 405.173 308.345 404.77C307.969 404.39 307.952 403.787 308.286 403.385Z" fill="#010103" fill-opacity="0.3"/>
<path fill-rule="evenodd" clip-rule="evenodd" d="M347.385 419.575C346.814 416.564 343.277 415.318 343.161 419.25C343.044 423.182 344.525 421.193 344.223 429.401C347.237 427.766 347.955 422.585 347.385 419.575Z" fill="#010103"/>
<path fill-rule="evenodd" clip-rule="evenodd" d="M308.503 380.165C308.503 380.165 307.841 380.915 308.147 384.567C308.454 388.219 312.283 404.648 312.283 404.648L309.235 406.045L305.353 384.567C305.353 384.567 307.268 380.588 308.503 380.165Z" fill="#010103" fill-opacity="0.1"/>
<path fill-rule="evenodd" clip-rule="evenodd" d="M149.162 315.249C140.987 315.249 135.49 320.296 132.256 324.911C130.735 327.08 130.63 331.496 131.539 336.002C132.602 341.271 134.94 346.358 136.781 347.674C137.626 348.278 138.363 348.479 138.997 348.464C139.775 348.446 140.5 348.131 141.163 347.387C141.989 346.462 142.763 344.548 143.777 341.777C144.492 339.823 145.372 337.415 146.602 334.647C147.349 332.966 148.238 331.86 149.273 331.258C150.367 330.621 151.588 330.594 152.821 330.879C158.593 332.214 164.722 339.814 164.722 339.814C164.722 339.814 167.324 343.042 169.163 346.933L164.931 326.305C164.931 326.305 157.336 315.249 149.162 315.249Z" fill="#CC7910"/>
<path d="M163.248 340.508C163.333 340.608 163.397 340.685 163.439 340.735L164.84 337.545C164.152 336.786 163.171 335.758 161.999 334.684C159.716 332.59 156.485 330.107 153.176 329.342C151.707 329.002 150.038 328.987 148.481 329.893C147.055 330.723 145.985 332.156 145.163 334.006C143.916 336.811 143.022 339.254 142.309 341.202L142.298 341.234C141.791 342.618 141.361 343.742 140.964 344.625C140.555 345.533 140.235 346.06 139.989 346.335C139.592 346.781 139.268 346.879 138.96 346.886C138.719 346.892 138.311 346.829 137.696 346.389C137.462 346.223 137.097 345.84 136.645 345.161C136.21 344.506 135.751 343.661 135.303 342.669C134.406 340.685 133.592 338.21 133.083 335.69C132.649 333.537 132.465 331.442 132.559 329.664C132.656 327.842 133.034 326.547 133.545 325.818C135.073 323.637 137.089 321.414 139.638 319.723L141.961 314.985C136.947 316.907 133.335 320.626 130.967 324.004C129.957 325.445 129.523 327.442 129.414 329.497C129.302 331.596 129.521 333.962 129.995 336.315C130.55 339.063 131.436 341.766 132.433 343.972C132.932 345.075 133.47 346.078 134.023 346.911C134.562 347.72 135.179 348.467 135.866 348.959C136.942 349.728 138.006 350.066 139.034 350.042C140.282 350.012 141.407 349.481 142.337 348.439C142.918 347.789 143.397 346.896 143.835 345.923C144.284 344.925 144.748 343.707 145.255 342.32L145.259 342.309C145.974 340.358 146.837 337.998 148.041 335.289C148.714 333.776 149.421 332.996 150.064 332.622C150.695 332.255 151.468 332.186 152.467 332.417C154.929 332.986 157.648 334.972 159.872 337.012C160.955 338.004 161.867 338.96 162.508 339.667C162.828 340.02 163.079 340.309 163.248 340.508Z" fill="black"/>
<path fill-rule="evenodd" clip-rule="evenodd" d="M135.014 332.942C135.995 329.875 140.2 329.633 139.91 333.908C139.621 338.183 138.856 338.329 137.595 344.518C134.302 341.817 134.033 336.009 135.014 332.942Z" fill="#010103"/>
<path fill-rule="evenodd" clip-rule="evenodd" d="M135.332 333.582C135.932 330.418 140.077 329.665 140.31 333.943C140.542 338.221 139.801 338.46 139.302 344.757C135.705 342.479 134.731 336.747 135.332 333.582Z" fill="#010103" fill-opacity="0.1"/>
<path fill-rule="evenodd" clip-rule="evenodd" d="M173.144 318.679C173.144 318.679 172.606 312.078 166.69 308.566C140.102 296.399 133.289 328.264 140.879 328.774C142.041 328.852 152.905 324.057 153.962 324.173C157.112 324.518 157.837 329.016 163.728 336.481C165.606 342.14 152.688 346.226 151.498 350.286C150.144 354.905 156.712 356.319 163.003 356.319C170.46 356.319 177.683 351.217 177.683 351.217C177.683 351.217 183.176 345.546 182.341 340.321C193.239 337.003 203.794 335.126 204.4 329.091C204.815 324.975 205.656 315.546 198.427 317.363L173.144 318.679Z" fill="#010103"/>
<path fill-rule="evenodd" clip-rule="evenodd" d="M169.152 324.71C169.152 324.71 177.29 329.146 178.81 334.78C180.33 340.415 177.867 345.075 174.565 348.977C171.263 352.878 158.38 354.323 156.023 352.535C153.665 350.746 156.169 347.354 164.683 342.626C169.555 339.92 162.764 327.103 162.764 327.103L169.152 324.71Z" fill="#CC7910"/>
<path fill-rule="evenodd" clip-rule="evenodd" d="M196.099 321.202C196.099 321.202 171.33 323.726 164.616 321.022C162.739 327.062 168.006 338.171 173.912 342.196C180.953 337.167 191.235 333.825 197.561 332.104C201.549 331.019 203.64 326.329 201.325 322.935C200.273 321.395 198.639 320.453 196.099 321.202Z" fill="#CC7910"/>
<path fill-rule="evenodd" clip-rule="evenodd" d="M171.063 328.165C171.063 328.165 171.181 318.104 166.899 313.251C162.617 308.399 157.205 307.73 152.052 308.284C146.898 308.838 139.128 319.526 139.545 322.752C139.962 325.978 144.258 325.825 152.772 321.097C157.644 318.391 166.217 336.011 166.217 336.011L171.063 328.165Z" fill="#CC7910"/>
<path opacity="0.3" fill-rule="evenodd" clip-rule="evenodd" d="M196.955 332.272C197.405 331.357 197.773 330.233 197.975 329.196C198.165 328.135 198.138 327.072 197.854 326.106C197.591 325.142 197.162 324.195 196.406 323.435C195.707 322.639 194.786 322.003 193.847 321.356L193.741 321.283C193.315 320.99 193.208 320.406 193.501 319.98C193.772 319.585 194.292 319.463 194.705 319.68C195.282 319.982 195.881 320.255 196.452 320.598C196.974 321.024 197.564 321.356 198.019 321.891C199.028 322.822 199.789 324.109 200.181 325.476C200.544 326.863 200.519 328.305 200.242 329.634C199.962 330.987 199.478 332.187 198.693 333.377C198.38 333.852 197.743 333.983 197.269 333.67C196.832 333.381 196.688 332.815 196.913 332.356L196.955 332.272Z" fill="#010103" fill-opacity="0.3"/>
<path opacity="0.3" fill-rule="evenodd" clip-rule="evenodd" d="M192.857 333.846C193.292 332.813 193.611 331.555 193.745 330.394C193.866 329.209 193.768 328.025 193.406 326.941C193.059 325.86 192.561 324.795 191.74 323.917C190.974 323.005 189.992 322.251 188.987 321.49L188.89 321.419C188.475 321.112 188.388 320.526 188.697 320.11C188.983 319.724 189.511 319.621 189.916 319.859C190.524 320.218 191.151 320.554 191.748 320.953C192.291 321.436 192.908 321.826 193.384 322.408C194.436 323.442 195.239 324.804 195.712 326.248C196.151 327.713 196.215 329.25 196.022 330.702C195.827 332.176 195.404 333.516 194.641 334.863C194.355 335.352 193.728 335.516 193.241 335.23C192.788 334.966 192.614 334.407 192.818 333.937L192.857 333.846Z" fill="#010103" fill-opacity="0.3"/>
<path opacity="0.3" fill-rule="evenodd" clip-rule="evenodd" d="M188.76 335.419C189.181 334.269 189.448 332.877 189.515 331.592C189.568 330.283 189.399 328.978 188.958 327.775C188.528 326.577 187.96 325.395 187.076 324.399C186.241 323.372 185.197 322.499 184.128 321.624L184.04 321.556C183.636 321.234 183.57 320.645 183.892 320.241C184.194 319.862 184.732 319.779 185.128 320.038C185.765 320.455 186.421 320.852 187.044 321.31C187.609 321.847 188.251 322.296 188.748 322.924C189.844 324.063 190.689 325.499 191.244 327.019C191.758 328.563 191.912 330.196 191.802 331.769C191.692 333.365 191.33 334.845 190.587 336.35C190.329 336.852 189.713 337.05 189.211 336.791C188.743 336.551 188.54 335.999 188.723 335.517L188.76 335.419Z" fill="#010103" fill-opacity="0.3"/>
<path opacity="0.3" fill-rule="evenodd" clip-rule="evenodd" d="M184.661 336.994C185.067 335.727 185.284 334.202 185.283 332.792C185.268 331.358 185.027 329.933 184.508 328.612C183.996 327.296 183.357 325.996 182.408 324.882C181.507 323.74 180.4 322.748 179.266 321.759L179.187 321.694C178.795 321.357 178.75 320.766 179.086 320.372C179.403 320.002 179.949 319.94 180.337 320.218C181.002 320.695 181.689 321.152 182.338 321.667C182.925 322.259 183.594 322.766 184.111 323.442C185.251 324.685 186.137 326.195 186.772 327.792C187.362 329.414 187.606 331.143 187.58 332.837C187.555 334.556 187.254 336.175 186.533 337.837C186.301 338.354 185.697 338.585 185.181 338.354C184.698 338.138 184.465 337.592 184.627 337.099L184.661 336.994Z" fill="#010103" fill-opacity="0.3"/>
<path opacity="0.3" fill-rule="evenodd" clip-rule="evenodd" d="M180.563 338.568C180.954 337.183 181.12 335.524 181.052 333.99C180.969 332.432 180.657 330.886 180.059 329.447C179.464 328.014 178.756 326.596 177.742 325.365C176.773 324.106 175.604 322.996 174.406 321.893L174.336 321.829C173.955 321.479 173.93 320.885 174.28 320.503C174.613 320.141 175.166 320.101 175.548 320.397C176.239 320.936 176.957 321.45 177.633 322.023C178.242 322.67 178.936 323.236 179.475 323.959C180.658 325.305 181.587 326.891 182.303 328.563C182.968 330.265 183.301 332.088 183.36 333.904C183.419 335.746 183.18 337.504 182.479 339.324C182.276 339.854 181.68 340.119 181.151 339.914C180.653 339.722 180.39 339.185 180.531 338.68L180.563 338.568Z" fill="#010103" fill-opacity="0.3"/>
<path fill-rule="evenodd" clip-rule="evenodd" d="M150.286 311.489C153.689 310.078 157.235 312.725 153.35 315.412C149.465 318.097 148.354 315.562 141.276 321.618C140.971 317.598 146.884 312.9 150.286 311.489Z" fill="#010103"/>
<path fill-rule="evenodd" clip-rule="evenodd" d="M149.987 312.102C153.224 310.342 157.027 312.604 153.443 315.682C149.859 318.759 148.49 316.355 142.083 323.119C141.36 319.153 146.751 313.861 149.987 312.102Z" fill="#010103" fill-opacity="0.1"/>
<path fill-rule="evenodd" clip-rule="evenodd" d="M202.108 333.173C202.108 333.173 201.774 334.117 198.438 335.619C195.101 337.12 178.903 341.73 178.903 341.73L179.16 345.078L199.793 338.068C199.793 338.068 202.337 334.461 202.108 333.173Z" fill="#010103" fill-opacity="0.1"/>
</g>
<defs>
<clipPath id="clip0">
<rect width="512" height="512" fill="white" transform="translate(0.514999)"/>
</clipPath>
</defs>
</svg>
