<?xml version="1.0" encoding="utf-8"?>
<!-- Generator: Adobe Illustrator 21.0.0, SVG Export Plug-In . SVG Version: 6.00 Build 0)  -->
<svg version="1.1" id="Ebene_2" xmlns="http://www.w3.org/2000/svg" xmlns:xlink="http://www.w3.org/1999/xlink" x="0px" y="0px"
	 viewBox="0 0 768 768" style="enable-background:new 0 0 768 768;" xml:space="preserve">
<style type="text/css">
	.st0{fill:#010103;}
	.st1{fill:#CC7910;}
	.st2{fill:#CECDC4;}
	.st3{fill:#FFFFFF;}
	.st4{fill:#A7A49B;}
	.st5{fill:#C1000C;}
	.st6{fill:#EEB11B;}
	.st7{fill:#D18D1E;}
	.st8{fill:#854205;}
	.st9{fill:#854605;}
	.st10{opacity:0.9;}
	.st11{opacity:0.1;}
	.st12{opacity:0.25;}
</style>
<g>
	<g>
		<path class="st0" d="M228.5,551.8L210.8,588c0,0-9.6-4.3-19.1,1.2c-10-4.7-21.1-5.2-32.7,5.5c-10.6,9.4-10.6,22.5-10.6,22.5
			s-5.9,30.7,7.8,41.5c13.7,10.8,28.9-16.8,44.9-20.6c16-3.8,27.1,7.3,33,5c7.5-2.9,20.6-2.5,24.3-11.7c4.3-10.6,0.8-22.2,0.8-22.2
			s-3.4-14.4-11.3-17.3c3.8-17.7,9.3-33.8,1.4-39.3C244,548.8,231.5,540.4,228.5,551.8z"/>
	</g>
	<g>
		<path class="st1" d="M215.8,597.9c0,0,12.4-7.9,21.4-5.7c9,2.2,13.6,9.3,16.4,16.9s-5.1,26.7-9.4,28.6c-4.3,1.9-7.1-4.2-7.1-19.7
			c0-8.9-23-9.3-23-9.3L215.8,597.9z"/>
	</g>
	<g>
		<path class="st0" d="M428.3,551.8L446,588c0,0,9.6-4.3,19.1,1.2c10-4.7,24.4-2.6,32.7,5.5s11.9,21.1,11.9,21.1s4.6,32.1-9.1,42.8
			c-3.4,2.7-3.9,6.1-10.1-6.4s-59.3-18-59.3-18s-24.9,11.9-32.9-2.9c-4.3-10.6-0.8-22.2-0.8-22.2s3.4-14.4,11.3-17.3
			c-3.8-17.7-9.3-33.8-1.4-39.3C412.8,548.8,425.2,540.4,428.3,551.8z"/>
	</g>
	<g>
		<path class="st1" d="M441,597.9c0,0-12.4-7.9-21.4-5.7c-9,2.2-13.6,9.3-16.4,16.9s5.1,26.7,9.4,28.6c4.3,1.9,7.1-4.2,7.1-19.7
			c0-8.9,23-9.3,23-9.3L441,597.9z"/>
	</g>
	<g>
		<path class="st1" d="M199.4,597.9c0,0-13.8-7.9-23.8-5.7s-15.1,9.3-18.3,16.9s5.6,26.7,10.4,28.6c4.8,1.9,7.9-4.2,7.9-19.7
			c0-8.9,25.6-9.3,25.6-9.3L199.4,597.9z"/>
	</g>
	<g>
		<path class="st1" d="M457.4,597.9c0,0,13.8-7.9,23.8-5.7s15.1,9.3,18.3,16.9c3.2,7.6-5.6,26.7-10.4,28.6
			c-4.8,1.9-7.9-4.2-7.9-19.7c0-8.9-25.6-9.3-25.6-9.3L457.4,597.9z"/>
	</g>
</g>
<g>
	<g>
		<rect x="83" y="644.3" class="st2" width="493.4" height="90.9"/>
	</g>
	<g>
		<g>
			<path class="st0" d="M426.4,662.6h-4.9v54.2h4.9c3,0,5.1-0.7,6.4-2.2s1.9-3.8,1.9-7.1v-35.8c0-3.1-0.6-5.3-1.9-6.9
				C431.5,663.4,429.4,662.6,426.4,662.6z"/>
		</g>
		<g>
			<path class="st0" d="M241.8,662.6h-5.5v25.2h5.1c3.9,0,6.3-1,7.3-2.9c1-1.9,1.5-5.1,1.5-9.6c0-4.4-0.5-7.7-1.4-9.7
				C247.9,663.6,245.6,662.6,241.8,662.6z"/>
		</g>
		<g>
			<polygon class="st0" points="379.3,700.9 389.9,700.9 384.7,674.1 			"/>
		</g>
		<g>
			<path class="st0" d="M548.6,662.6H543v23.1h6c3.4,0,5.7-0.9,6.8-2.8c1.1-1.8,1.7-4.8,1.7-8.8c0-4.1-0.6-7.1-1.8-8.9
				C554.7,663.5,552.2,662.6,548.6,662.6z"/>
		</g>
		<g>
			<path class="st0" d="M153,662.6h-5.5v23.1h6c3.4,0,5.7-0.9,6.8-2.8c1.1-1.8,1.7-4.8,1.7-8.8c0-4.1-0.6-7.1-1.8-8.9
				C159.1,663.5,156.7,662.6,153,662.6z"/>
		</g>
		<g>
			<path class="st0" d="M284.2,662.6h-5.5v25.2h5.1c3.9,0,6.3-1,7.3-2.9c1-1.9,1.5-5.1,1.5-9.6c0-4.4-0.5-7.7-1.4-9.7
				C290.3,663.6,288,662.6,284.2,662.6z"/>
		</g>
		<g>
			<path class="st0" d="M49.4,614.9v141.9c0,2.3,1.9,4.2,4.2,4.2h548.9c2.3,0,4.2-1.9,4.2-4.2V614.9c0-2.3-1.9-4.2-4.2-4.2H53.6
				C51.3,610.7,49.4,612.6,49.4,614.9z M127.5,673.9h-10.6v-3.7c0-2.4-0.7-4.3-2-5.6s-3.1-1.9-5.2-1.9c-2.1,0-3.8,0.6-5.2,1.9
				c-1.4,1.3-2,3.1-2,5.6v39.2c0,2.4,0.7,4.3,2,5.6c1.4,1.3,3.1,1.9,5.2,1.9c2.1,0,3.8-0.6,5.2-1.9s2-3.1,2-5.6v-14h-8.4V686h19.1
				v23.3c0,5.7-1.8,10.1-5.4,13.3c-3.6,3.2-7.7,4.8-12.5,4.8c-4.8,0-9-1.6-12.5-4.7c-3.5-3.2-5.3-7.6-5.3-13.4v-39.2
				c0-5.7,1.8-10.1,5.4-13.3c3.6-3.2,7.7-4.8,12.5-4.8c4.8,0,9,1.6,12.5,4.7c3.5,3.2,5.3,7.6,5.3,13.4V673.9z M163.8,726.8l-10-31.7
				h-6.3v31.7h-10.6v-74.2h17.1c12.5,0,18.8,7.3,18.8,21.8c0,4.5-0.7,8.3-2.1,11.3c-1.4,3-3.8,5.4-7.1,7.3l11.5,33.9L163.8,726.8z
				 M215.6,710.1c0,4.9-1.7,9-5,12.3c-3.3,3.3-7.4,5-12.2,5c-4.8,0-8.9-1.7-12.2-5c-3.3-3.3-5-7.4-5-12.3v-57.5h10.6v56.5
				c0,2.5,0.6,4.4,1.8,5.7c1.2,1.3,2.8,2,4.8,2c4.4,0,6.6-2.6,6.6-7.7v-56.5h10.6V710.1z M259.6,683.9c-0.4,2.2-1.3,4.4-2.7,6.6
				c-1.4,2.3-3.3,4-5.8,5.4c-2.5,1.3-5.6,2-9.4,2h-5.4v29h-10.6v-74.2h15.9c3.1,0,5.7,0.4,7.8,1.2c2.1,0.8,4.1,2.1,5.9,4
				c1.8,1.9,3.1,4.1,3.7,6.7c0.7,2.6,1,6.2,1,10.7C260.1,678.8,260,681.7,259.6,683.9z M302,683.9c-0.4,2.2-1.3,4.4-2.7,6.6
				c-1.4,2.3-3.3,4-5.8,5.4c-2.5,1.3-5.6,2-9.4,2h-5.4v29h-10.6v-74.2H284c3.1,0,5.7,0.4,7.8,1.2c2.1,0.8,4.1,2.1,5.9,4
				c1.8,1.9,3.1,4.1,3.7,6.7c0.7,2.6,1,6.2,1,10.7C302.6,678.8,302.4,681.7,302,683.9z M342.2,662.6h-21.1v21.9h18.3v10h-18.3v21.7
				h21.1v10.6h-31.7v-74.2h31.7V662.6z M395,726.8l-3.1-15.9h-14.4l-3.1,15.9l-10.7,0l16.6-74.2h8.9l16.6,74.2L395,726.8z
				 M445.3,706.5c0,6.7-1.7,11.8-5.1,15.2c-3.4,3.4-8.2,5.1-14.5,5.1h-14.8v-74.2h15.7c6,0,10.6,1.7,13.8,5.1
				c3.2,3.4,4.8,8.1,4.8,14.1V706.5z M486.9,726.8h-31.7v-74.2h10.6v63.6h21.1V726.8z M525.5,662.6h-21.1v21.9h18.3v10h-18.3v21.7
				h21.1v10.6h-31.7v-74.2h31.7V662.6z M559.3,726.8l-10-31.7H543v31.7h-10.6v-74.2h17.1c12.5,0,18.8,7.3,18.8,21.8
				c0,4.5-0.7,8.3-2.1,11.3s-3.7,5.4-7.1,7.3l11.5,33.9L559.3,726.8z"/>
		</g>
	</g>
</g>
<g>
	<path class="st2" d="M383.3,529.8H272.8l-48,29.4l-1.4,2.9c-8.2,0-9.3-2.3-9.3-2.3L189,511.6l61.5-148.7l17.7-58.4l-64.3-78.9
		l9.7-28l149.1-2l58.8,121.7l68.9,194.4l-44.7,42.5c-4.3,7-10.8,7.8-13.9,5.6L383.3,529.8z"/>
	<path class="st0" d="M450.3,471.8c-11-19.4-25.5-32.9-25.5-32.9s-12.5-28.2-15.2-36.1c-2.7-7.8,18.3,4,18.3,4s-16.2-21.7-24.4-27.3
		c-1.3-5.7-8.1-29.3-8.1-29.3s6.6,0.9,11.2,2.7c-0.2-4.4-17.2-22.6-17.2-22.6l-3-19.6c0,0,5.1,0.3,10.5,4.8
		c-1.1-5.8-12.2-15.6-15.5-19.2c-2.5-29.4-14.5-76.8-20-86.3l-14.6,16.2c-13.1-34.6-25.4-60.3-35.3-68.4c-5.1-4.2-82.9,39-82.6,67.2
		c0.1,7.3,18.2,28.3,37.9,34.1c16.1,4.7,34.6-4.9,33.7-6c0,0,1.1,15.7,0.4,24.4s-3.4,23-3.4,23s-14.4,13.4-15.5,19.2
		c5.5-4.6,10.5-4.8,10.5-4.8l-3,19.6c0,0-17,18.2-17.2,22.6c4.6-1.8,11.2-2.7,11.2-2.7s-6.8,23.6-8.1,29.3
		c-8.1,5.5-24.4,27.3-24.4,27.3s21-11.8,18.3-4c-2.7,7.8-15.2,36.1-15.2,36.1s-14.5,13.5-25.5,32.9c5.9-3.8,12.1-7.5,16.5-9.9
		c1.8-1,3.8,0.9,2.9,2.7c-11.9,24.7-20.4,50-26.2,75.8c-0.6,2.8-0.6,5.8,0.2,8.6c2.7,9.2,11,26.8,29.1,20.9c1.8-0.6,3.4-1.8,4.3-3.4
		c13.5-22,27.3-31.8,45-36.5c-24,16-38.6,46.2-38.6,46.2s59.9,20,131,0.9c0,0-12.4-32-36-48c24.6,8.7,39,30.8,42.4,35.5
		c4.6,6.4,34.1-2.4,37.1-18.1c2.9-14.9-1.1-59.1-8-87.2c-0.4-1.8,1.5-3.2,3.1-2.3C436.6,463.4,443.6,467.5,450.3,471.8z"/>
	<g>
		<path class="st0" d="M651.3,516.9c0.9,0,1.4-1,0.9-1.7c-11.2-15.5-96.9-134.6-96.4-137.2c2.1-10.3,7.8-20.8,8.8-31.8l33.9,48.3
			c27.4,39,71.8,62.4,119.4,63.1c0.9,0,1.4-1,0.9-1.7L457.3,81.4c-3.5-5-11-4.6-14,0.6c0,0-20.8,33.5-6,62.7
			c26.6,52.8,14.4,99.6-9.2,103.8c-23.6,4.2-54.1-43-78.5-62l19.5,28.2c9.8,24.8,14.8,51.1,18.3,78.6c14.3,10.7,24,29.4,29.6,43.2
			c-6.7-7.4-17.2-11.8-22.3-15.9c0.6,2.3,1.1,4.6,1.7,7c17.4,15.9,27.2,34.5,33.7,50.6c-8-8.8-20.1-15-25.7-19.2
			c0.8,3,1.6,6.1,2.5,9.2c16.4,19.8,35.7,45.4,44.4,67c-11.7-12.9-25.7-20.5-32.3-24.4c0.6,1.9,1.1,3.7,1.7,5.6
			c17.7,23.3,47.5,64.2,59.7,94.2c-15.8-17.4-32.4-30.5-40.3-34.6c7.7,22.1,8.3,57.6,5.7,78c-0.1,0.7,0.5,1.2,1.2,1
			c5.6-1.6,27.5-8.5,45.8-24.6c30.1,17.1,58.5,23.4,79.9,26.1c0.9,0.1,1.5-0.9,1-1.6c-8.5-11.9-54-75.4-52.8-77.5
			c3.6-6.3,11.1-23.5,11.1-23.5C559.3,492.8,603.7,516.3,651.3,516.9z"/>
	</g>
	<g>
		<path class="st3" d="M275.2,229.9c-7.3,0-13.3-6-13.3-13.3s6-13.3,13.3-13.3c7.4,0,13.4,6,13.4,13.3S282.6,229.9,275.2,229.9z
			 M275.2,208.2c-4.6,0-8.3,3.7-8.3,8.3c0,4.6,3.7,8.3,8.3,8.3c4.6,0,8.4-3.7,8.4-8.3C283.6,212,279.8,208.2,275.2,208.2z"/>
	</g>
	<g>
		<g>
			<g>
				<path class="st2" d="M229.3,213.7c0,0-21.8-61.9,48.9-85.2c43-14.1,70.9,7.5,82.1,34c14.4,6.3,22.9,39.3,22.9,39.3
					s-56.5,40.8-75.6,24.6c-15.5-13-39-18.3-64-5.2C214.6,236.4,229.3,213.7,229.3,213.7z"/>
			</g>
		</g>
		<g>
			<path class="st4" d="M257.4,164l86.4-8.2c0,0-14.2,30.6-31.8,36c-51,15.5-52.5-0.6-81.6,25.2c-4.5,4-7,0.3-8.4-6.6
				C217.4,187.7,234.3,166.2,257.4,164z"/>
		</g>
		<g>
			<g>
				<g>
					<polygon class="st3" points="356.2,177.9 362.7,195.5 338,205.4 332.6,184.7 					"/>
				</g>
				<g>
					<path class="st0" d="M358.2,177.2l7.6,17.2c0.7,1.6,0,3.4-1.6,4.1l-0.1,0.1l-0.2,0.1l-24.9,9.5l-0.1,0
						c-1.5,0.6-3.1-0.2-3.7-1.7c0-0.1-0.1-0.3-0.1-0.4l-4.8-20.9l0-0.1c-0.3-1.2,0.5-2.5,1.7-2.8l23.7-6.5c1-0.3,2.1,0.2,2.5,1.2
						L358.2,177.2z M354.8,180.5l-21.1,4.6l4.6,19l23.1-9.9L354.8,180.5z"/>
				</g>
			</g>
			<g>
				<polygon class="st0" points="332.6,184.7 356.2,177.9 358.9,184.1 334.5,192.2 				"/>
			</g>
			<g>
				<polygon class="st5" points="334.5,192.2 358.9,184.1 360.9,189.7 336.4,199.5 				"/>
			</g>
			<g>
				<polygon class="st6" points="336.4,199.5 360.9,189.7 362.7,195.5 338,205.4 				"/>
			</g>
		</g>
	</g>
	<g>
		<path class="st7" d="M207.7,243.5l18.5-7c0,0,16-21.4,45.4,16.5c9.2-5.6,29.3-9.6,34-1.9c1.1,1.8,0.4,4.1-1.2,5.3
			c-14.4,10.5-40.4,39.3-40.4,39.3l-18.8,54.9l-69.3-73L207.7,243.5z"/>
	</g>
	<g>
		<path class="st8" d="M252,256.6c-2.7,3.2-17.3-5.2-21.6-7.8c-0.5-0.3-0.4-1,0.2-1.2c3.5-1,12.6-3.6,16.4-2.6
			C251.8,246.4,255.2,252.9,252,256.6z"/>
	</g>
	<g>
		<path class="st0" d="M249.1,254.1c-2.2,2.5-15.5-5.2-15.5-5.8c0-0.7,8.9-2.9,12.1-2C249,247.1,251.3,251.5,249.1,254.1z"/>
	</g>
	<g>
		<path class="st0" d="M378.8,178.2c-1.9-3.6-4.1-7.1-6.8-10.3c-2.5-2.9-5.4-5.8-9.2-7.7c-3.4-8-8.2-15.5-14.4-21.8
			c-1.3-1.3-2.7-2.5-4.1-3.7c1.2-4.1,1.7-6.8,1.7-6.8l-7.7,2.4c-3.3-2.2-6.9-3.9-10.5-5.4c9.7-7.3,18.6-14.3,23.6-19.3
			c15.9-15.8,9.5-57.5,9.5-57.5l-44.2,30.1L329.3,58c12.9-18.3-12-50-12-50L200.7,177C82.2,325.8,124.9,499,212,561.3
			c1.1,0.8,2.5-0.2,2.2-1.5c-1-3.8-2-5.6-0.7-11.9c4.1-20.9,7.1-43,22.8-67.9c-7.9,4.1-20.8,15-36.6,32.5
			c12.1-30,41.5-68.4,59.1-91.8c0.6-1.9,1.1-3.7,1.7-5.6c-6.6,3.9-20.6,11.5-32.3,24.4c8.8-21.7,28-47.3,44.4-67
			c0.8-3.1,1.7-6.2,2.5-9.2c-5.6,4.2-17.7,10.5-25.7,19.2c6.5-16.1,16.3-34.7,33.7-50.6c0.6-2.4,1.2-4.7,1.7-7
			c-5.1,4.1-15.5,8.5-22.3,15.9c5.6-13.9,15.3-32.5,29.6-43.2c5.4-23.7,4.9-35.6,4.9-35.6s-40.9,30.7-46.6,45.1
			c-5.7,14.4-3,31.4-4.5,34.5l-40.4-40c-7.7-7.7-15.8-24.1-8.3-32.2l29-32.8c-2.2-2.3-3.1-8.7-3.5-11c0.7,1.1,3.2,2.7,4.2,2.9
			c1.5,0.4,2.7,0.3,3.8,0.2c2.2-0.3,4.2-0.9,6.1-1.6c3.8-1.3,7.3-3.3,10.6-4.7c3.3-1.6,6.8-2.7,10.3-3.7c3.5-0.9,7.1-1.5,10.7-1.7
			c3.6-0.3,7.2,0,10.8,0.4c7.1,1.1,13.9,3.6,19.9,7.5c1.5,1,2.8,1.8,4.3,3.1l2.2,1.8c0.9,0.8,2,1.4,3,2c4.3,2.2,8.9,2.7,13.1,2.5
			c8.5-0.4,16.1-2.9,23.5-5.8c7.3-2.9,41.4-26,41.4-26S380.8,181.8,378.8,178.2z M322.7,130.7c2,0.7,4,1.5,5.9,2.4l-21.7,6.6
			c4.4-3.1,8.9-6.3,13.5-9.6C321.2,130.3,322,130.5,322.7,130.7z M371.1,204.1c-3.1,2.1-6.3,4.1-9.5,6c-6.4,3.8-13,7.4-19.7,10.3
			c-6.7,2.9-13.8,5.4-20.6,5.9c-3.4,0.2-6.6-0.1-9.2-1.3c-0.6-0.3-1.3-0.7-1.8-1.1l-2.3-1.7c-1.4-1.1-3.4-2.4-5.1-3.4
			c-7-4.2-14.8-6.8-22.9-7.7c-4-0.4-8.1-0.5-12.1,0c-4,0.3-7.9,1.2-11.8,2.3c-3.8,1.2-7.5,2.6-11,4.4c-3.7,1.8-6.7,3.6-10.1,4.9
			c-1.7,0.7-3.4,1.2-4.9,1.5c-0.7,0.1-1.5,0.1-1.9,0c-0.4-0.2-0.3,0-0.4-0.3c-0.9-3.1,4.7-6.8,4.7-6.8l-3-7.4l2.6-1.8
			c28.6-23.7,67.2-21.3,84.8-29.3c12.5-5.7,20.5-23.4,24.9-36.3c6.6,5.9,11.9,13.4,15.5,21.6l0.5,1.1l1.2,0.6c2.7,1.4,5.1,4,7.1,6.9
			c2,2.9,3.7,6.2,5.2,9.6c1.5,3.4,2.8,6.9,4,10.5c0.6,1.8,1.1,3.6,1.6,5.4c0.2,0.6,0.4,1.3,0.5,2
			C375.4,201.2,373.3,202.7,371.1,204.1z"/>
	</g>
	<g>
		<path class="st2" d="M340.4,225.6c-5.2,1.9-8.9,4.1-11.1,4.7c-0.6,0.2-1,0.8-0.9,1.5c6.7,49.5,11.8,51.8,14.5,52.9
			c2.8,1.1,12.7-4.8,13.8-7.7c2.3-6.6-11.8-10.5-15.1-50.6C341.5,225.8,341,225.4,340.4,225.6z M338.2,262.3c0.3-1.9,2.1-3.3,4-3
			c1.9,0.3,3.2,2,3,4c-0.3,1.9-2,3.2-3.9,3C339.3,266,337.9,264.2,338.2,262.3z M346.1,278.5c-2.1-0.3-3.6-2.2-3.3-4.3
			c0.3-2.1,2.2-3.5,4.3-3.3c2.1,0.3,3.5,2.2,3.3,4.3C350.1,277.3,348.2,278.8,346.1,278.5z"/>
	</g>
	<g>
		<path class="st9" d="M304.3,249.8c0,0-3.5,3.4-38.8,31.2c-6.2,4.9-11.6,20.2-11.6,20.2l52.2-46c0.3-0.3,0.5-0.6,0.6-1.1
			C306.9,252.4,306.1,250.8,304.3,249.8z"/>
	</g>
	<g class="st10">
		<path class="st0" d="M248,339.3c-2.6-19.5-0.2-47.2,26.1-68.9c3.1-2.5,6-4.7,8.5-6.7c4.5-3.4,22.1-17.2,24.3-15l3,1.8
			c-9.5,3.5-20.5,13.3-24.7,16.6c-2.5,1.9-5.4,4.1-8.4,6.6c-24.8,20.5-27.1,46.7-24.6,65.2L248,339.3z"/>
	</g>
	<g>
		<path class="st0" d="M491.4,602.3c-3.6-3.6-9.8-1.9-6.3,3.6c3.4,5.5,4.6,5.3,10.8,12.9C498.7,613.7,494.9,605.9,491.4,602.3z"/>
	</g>
	<g>
		<path class="st1" d="M425.4,557.8c0,0,15.7,36.4,24.7,43.6c-7,7.3-26.6,8.5-36.8,3.4c1.6-13.7-1.7-30.5-4.3-40.6
			c-1.6-6.4,3.4-12.9,9.9-12.3C421.9,552.1,424.5,553.7,425.4,557.8z"/>
	</g>
	<g>
		<path class="st1" d="M435.1,597.9c0,0,13.8-7.9,23.8-5.7c10,2.2,15.1,9.3,18.3,16.9s-5.6,26.7-10.4,28.6
			c-4.8,1.9-7.9-4.2-7.9-19.7c0-8.4-30.8-7.3-30.8-7.3L435.1,597.9z"/>
	</g>
	<g class="st11">
		<path class="st0" d="M473.3,618.1c0-5.3-6.6-7.4-8.2-4.2c-1.5,3.2,0.3,9-0.8,19.6C470.3,631.8,473.3,623.4,473.3,618.1z"/>
	</g>
	<g class="st11">
		<path class="st0" d="M477.7,610.7c0,0-2.2-9.5-11.4-14.1c7.9-3.7,6.7-2.4,6.7-2.4c12.5,2.7,16.9,18.4,16.9,18.4L477.7,610.7z"/>
	</g>
	<g class="st11">
		<path class="st0" d="M416.5,611.2l36.7,1.9C453.2,613,427.3,592.3,416.5,611.2z"/>
	</g>
	<g>
		<g class="st11">
			<g>
				<path class="st0" d="M406.4,563.7c1-2,2.3-3.6,4-5c1.6-1.4,3.6-2.5,5.8-3.1c2.2-0.5,4.6-0.4,6.6,0.2c1.1,0.2,2,0.8,3,1.2
					c0.9,0.5,1.8,1.2,2.6,1.7c0.7,0.5,0.9,1.4,0.4,2.1c-0.4,0.6-1.2,0.8-1.9,0.5l-0.2-0.1c-1.6-0.8-3.2-1.6-4.9-2
					c-1.6-0.5-3.3-0.3-4.8,0c-1.6,0.3-3.1,1.1-4.4,2.2c-1.3,1.1-2.6,2.5-3.5,3.8l-0.1,0.1c-0.5,0.7-1.5,0.9-2.3,0.4
					C406.2,565.3,406,564.4,406.4,563.7z"/>
			</g>
		</g>
		<g class="st11">
			<g>
				<path class="st0" d="M407.5,570.5c1.3-2.1,2.8-3.7,4.7-5.1c1.9-1.4,4-2.5,6.4-3c2.4-0.5,4.9-0.4,7.1,0.3
					c1.2,0.2,2.2,0.8,3.3,1.2c1,0.5,2,1.1,2.9,1.7c0.7,0.4,0.9,1.3,0.5,2c-0.4,0.7-1.2,0.9-1.9,0.6l-0.2-0.1c-1.8-0.8-3.6-1.6-5.5-2
					c-1.8-0.5-3.7-0.3-5.5,0c-1.8,0.3-3.5,1.1-5,2.2c-1.5,1.1-3,2.5-4.1,3.9l-0.1,0.1c-0.5,0.7-1.6,0.8-2.3,0.3
					C407.2,572.1,407.1,571.2,407.5,570.5z"/>
			</g>
		</g>
		<g class="st11">
			<g>
				<path class="st0" d="M408.5,577.2c1.5-2.2,3.3-3.8,5.4-5.2c2.1-1.4,4.5-2.4,7-2.9c2.5-0.4,5.2-0.3,7.6,0.3
					c1.3,0.2,2.4,0.8,3.5,1.1c1.1,0.5,2.2,1.1,3.2,1.7c0.7,0.4,1,1.3,0.6,2c-0.4,0.7-1.2,1-1.9,0.7l-0.2-0.1c-2-0.8-4-1.6-6.1-2
					c-2.1-0.5-4.1-0.3-6.1,0c-2,0.3-3.9,1.1-5.7,2.2c-1.7,1.1-3.5,2.5-4.7,4l-0.1,0.1c-0.6,0.7-1.6,0.8-2.3,0.2
					C408.2,578.9,408.1,577.9,408.5,577.2z"/>
			</g>
		</g>
		<g class="st11">
			<g>
				<path class="st0" d="M409.6,584c1.7-2.3,3.8-3.9,6.1-5.3c2.3-1.3,4.9-2.3,7.6-2.8c2.7-0.3,5.5-0.3,8.1,0.4
					c1.3,0.2,2.6,0.7,3.8,1.1c1.2,0.5,2.4,1.1,3.5,1.7c0.7,0.4,1,1.2,0.7,2c-0.3,0.7-1.1,1-1.9,0.8l-0.2-0.1c-2.2-0.8-4.5-1.6-6.7-2
					c-2.3-0.5-4.6-0.4-6.8-0.1c-2.2,0.3-4.4,1.1-6.4,2.1c-2,1.1-3.9,2.6-5.3,4.1l-0.1,0.1c-0.6,0.7-1.6,0.7-2.3,0.1
					C409.2,585.6,409.1,584.7,409.6,584z"/>
			</g>
		</g>
		<g class="st11">
			<g>
				<path class="st0" d="M410.7,590.8c2-2.4,4.2-4,6.8-5.4c2.6-1.3,5.3-2.2,8.2-2.6c2.9-0.3,5.8-0.2,8.6,0.4
					c1.4,0.2,2.7,0.7,4.1,1.1c1.3,0.5,2.6,1.1,3.9,1.6c0.8,0.3,1.1,1.2,0.8,2c-0.3,0.7-1.1,1.1-1.8,0.8l-0.1,0
					c-2.5-0.8-4.9-1.6-7.4-2c-2.5-0.5-5-0.4-7.4-0.1c-2.5,0.3-4.8,1-7.1,2.1c-2.2,1.1-4.3,2.6-6,4.2l-0.1,0.1
					c-0.6,0.6-1.7,0.6-2.3,0C410.2,592.4,410.1,591.4,410.7,590.8z"/>
			</g>
		</g>
	</g>
	<g>
		<path class="st0" d="M473,616.8c-1-4.8-6.9-6.8-7.1-0.5c-0.2,6.3,2.3,3.1,1.8,16.2C472.7,629.9,473.9,621.6,473,616.8z"/>
	</g>
	<g>
		<path class="st0" d="M165.2,601.8c3.8-3.4,9.9-1.4,6.2,3.9c-3.7,5.3-4.9,5.1-11.5,12.4C157.4,612.8,161.5,605.2,165.2,601.8z"/>
	</g>
	<g>
		<path class="st1" d="M231.3,557.8c0,0-15.7,36.4-24.7,43.6c7,7.3,26.6,8.5,36.8,3.4c-1.6-13.7,1.7-30.5,4.3-40.6
			c1.6-6.4-3.4-12.9-9.9-12.3C234.8,552.1,232.2,553.7,231.3,557.8z"/>
	</g>
	<g>
		<path class="st1" d="M221.7,597.9c0,0-13.8-7.9-23.8-5.7s-15.1,9.3-18.3,16.9s5.6,26.7,10.4,28.6c4.8,1.9,7.9-4.2,7.9-19.7
			c0-8.9,30.9-7.2,30.9-7.2L221.7,597.9z"/>
	</g>
	<g class="st11">
		<path class="st0" d="M185.2,619.4c0-5.3,4.8-8.6,6.5-5.5c2.9,5.2-0.3,9,0.8,19.6C186.5,631.8,185.2,624.7,185.2,619.4z"/>
	</g>
	<g class="st11">
		<path class="st0" d="M179.6,612c0,0,3-10.7,12.1-15.4c-3.8-2-5.4-1.3-5.4-1.3c-6.9,2.9-12.4,9-17.1,16.7H179.6z"/>
	</g>
	<g class="st11">
		<path class="st0" d="M242,611.2l-38.4,2C203.7,613.2,231.3,592.3,242,611.2z"/>
	</g>
	<g>
		<g class="st11">
			<g>
				<path class="st0" d="M247.5,565.3c-0.9-1.3-2.2-2.7-3.5-3.8c-1.3-1.1-2.8-1.9-4.4-2.2c-1.5-0.4-3.2-0.5-4.8,0
					c-1.6,0.4-3.2,1.1-4.9,2l-0.2,0.1c-0.7,0.4-1.6,0.1-2-0.7c-0.3-0.7-0.1-1.5,0.5-1.9c0.9-0.6,1.7-1.2,2.6-1.7c1-0.4,1.9-1,3-1.2
					c2.1-0.7,4.4-0.8,6.6-0.2c2.2,0.6,4.2,1.7,5.8,3.1c1.7,1.4,2.9,3,4,5c0.4,0.8,0.1,1.8-0.7,2.2c-0.7,0.4-1.6,0.2-2.1-0.5
					L247.5,565.3z"/>
			</g>
		</g>
		<g class="st11">
			<g>
				<path class="st0" d="M246.5,572.2c-1.1-1.4-2.6-2.8-4.1-3.9c-1.5-1.1-3.3-1.9-5-2.2c-1.8-0.3-3.6-0.5-5.5,0
					c-1.9,0.4-3.7,1.1-5.5,2l-0.2,0.1c-0.7,0.3-1.6,0-2-0.7c-0.3-0.7-0.1-1.5,0.6-1.9c1-0.6,1.9-1.2,2.9-1.7
					c1.1-0.4,2.1-0.9,3.3-1.2c2.2-0.7,4.7-0.7,7.1-0.3c2.4,0.5,4.5,1.6,6.4,3c1.9,1.4,3.4,3,4.7,5.1c0.5,0.8,0.2,1.8-0.6,2.2
					c-0.7,0.4-1.6,0.2-2.1-0.4L246.5,572.2z"/>
			</g>
		</g>
		<g class="st11">
			<g>
				<path class="st0" d="M245.5,579.1c-1.3-1.5-3-2.9-4.7-4c-1.8-1.1-3.7-1.8-5.7-2.2c-2-0.3-4.1-0.4-6.1,0c-2.1,0.4-4.1,1.1-6.1,2
					l-0.2,0.1c-0.8,0.3-1.6,0-1.9-0.8c-0.3-0.7,0-1.5,0.7-1.9c1.1-0.6,2.1-1.2,3.2-1.7c1.2-0.4,2.3-0.9,3.5-1.1
					c2.4-0.6,5.1-0.7,7.6-0.3c2.5,0.5,4.9,1.5,7,2.9c2.1,1.4,3.9,3,5.4,5.2c0.5,0.7,0.3,1.8-0.4,2.2c-0.7,0.5-1.6,0.3-2.1-0.3
					L245.5,579.1z"/>
			</g>
		</g>
		<g class="st11">
			<g>
				<path class="st0" d="M244.6,586c-1.4-1.5-3.4-3-5.3-4.1c-2-1.1-4.2-1.8-6.4-2.1c-2.2-0.3-4.5-0.4-6.8,0.1
					c-2.3,0.4-4.5,1.1-6.7,2l-0.2,0.1c-0.8,0.3-1.6-0.1-1.9-0.9c-0.3-0.7,0.1-1.5,0.7-1.9c1.2-0.6,2.3-1.2,3.5-1.7
					c1.3-0.4,2.5-0.9,3.8-1.1c2.6-0.6,5.4-0.7,8.1-0.4c2.7,0.4,5.3,1.4,7.6,2.8c2.4,1.4,4.4,3,6.1,5.3c0.5,0.7,0.4,1.7-0.3,2.3
					c-0.7,0.5-1.6,0.4-2.2-0.2L244.6,586z"/>
			</g>
		</g>
		<g class="st11">
			<g>
				<path class="st0" d="M243.6,592.9c-1.6-1.6-3.8-3.1-6-4.2c-2.2-1.1-4.6-1.8-7.1-2.1c-2.4-0.3-5-0.4-7.4,0.1
					c-2.5,0.4-4.9,1.1-7.4,2l-0.1,0c-0.8,0.3-1.6-0.2-1.9-0.9c-0.2-0.7,0.1-1.5,0.8-1.8c1.3-0.5,2.5-1.1,3.9-1.6
					c1.4-0.3,2.7-0.9,4.1-1.1c2.8-0.6,5.7-0.7,8.6-0.4c2.9,0.4,5.7,1.3,8.2,2.6c2.6,1.3,4.8,3,6.8,5.4c0.6,0.7,0.5,1.7-0.2,2.3
					c-0.6,0.5-1.6,0.5-2.2-0.1L243.6,592.9z"/>
			</g>
		</g>
	</g>
	<g>
		<path class="st0" d="M184.5,617.2c0.6-4.9,6.4-7.3,7-1s-3.3,5.9-0.6,18.1C185.6,632,183.9,622.1,184.5,617.2z"/>
	</g>
	<g class="st12">
		<path class="st0" d="M244.3,553.8c0,0,1.1,1.2,0.6,6.9c-0.5,5.8-6.7,31.7-6.7,31.7l4.9,2.2l6.3-33.9
			C249.4,560.8,246.3,554.5,244.3,553.8z"/>
	</g>
	<g class="st12">
		<path class="st0" d="M411.4,554.5c0,0-1.1,1.2-0.6,6.9s6.7,31.7,6.7,31.7l-4.9,2.2l-6.3-33.9C406.3,561.4,409.4,555.1,411.4,554.5
			z"/>
	</g>
</g>
</svg>
