<svg width="512" height="512" viewBox="0 0 512 512" fill="none" xmlns="http://www.w3.org/2000/svg">
<g clip-path="url(#clip0)">
<path d="M248.496 34.4208C264.5 122.452 286.482 171.762 314.443 182.351C335.217 190.219 326.463 237.238 275.445 301.678C268.275 310.734 273.381 338.304 261.115 341.37C250.899 343.922 234.443 326.439 221.258 338.746C203.401 332.564 161.462 298.46 179.68 188.048C186.749 145.203 198.888 106.715 218.077 71.9217C224.839 59.6608 234.979 47.1604 248.496 34.4208Z" fill="black"/>
<path fill-rule="evenodd" clip-rule="evenodd" d="M297.956 363.329L247.661 348.991C221.293 342.262 205.652 336.428 200.737 331.491C193.364 324.086 188.742 316.264 192.284 313.71C198.189 309.453 206.708 305.743 217.84 302.583C211.945 302.884 209.347 302.58 210.047 301.671C211.636 299.608 220.094 293.506 235.419 283.365C241.384 277.413 245.045 273.496 246.401 271.614C248.124 269.221 237.026 270.11 230.36 270.11C238.62 258.698 247.661 253.739 258.211 251.226C260.621 249.271 263.177 246.501 265.879 242.914C261.431 241.893 258.14 241.382 256.004 241.382C258.911 236.324 266.688 229.485 279.337 220.864L270.364 223.407C273.453 217.7 276.606 213.296 279.822 210.195C283.038 207.093 286.138 205.028 289.123 203.998C294.955 190.742 298.598 181.878 300.051 177.406C301.504 172.934 301.62 170.229 300.399 169.293L279.092 144.139L344.595 150.601L350.181 168.678L362.28 243.206L365.635 373.239L330.621 390.043C326.663 393.403 322.62 392.646 321.226 390.696L297.956 363.329Z" fill="#CECDC4"/>
<path fill-rule="evenodd" clip-rule="evenodd" d="M265.277 150.416C270.57 133.387 310.181 120.413 327.8 126.137C339.546 129.954 346.095 143.623 347.449 167.144C348.914 173.9 346.843 204.669 342.601 222.813C343.891 225.583 348.619 233.632 348.141 237.317C345.761 233.518 342.768 232.373 342.768 232.373L340.72 244.72C340.72 244.72 347.365 258.972 346.626 261.627C344.326 259.779 340.833 258.043 340.452 257.856L340.418 257.839C340.418 257.839 339.883 273.313 339.528 276.989C343.311 281.897 348.789 298.082 348.789 298.082C348.789 298.082 338.507 286.916 338.595 292.136C338.684 297.35 340.632 316.718 340.632 316.718C340.632 316.718 346.669 327.646 349.48 341.404C346.332 337.542 342.91 333.723 340.784 331.399C340.012 330.554 338.597 331.028 338.512 332.172C337.149 350.393 330.902 377.684 326.275 386.039C321.383 394.872 302.02 394.455 300.525 389.709C299.426 386.218 295.122 370.144 282.063 360.147C293.04 374.297 294.232 395.923 294.232 395.923C289.363 395.676 284.653 395.193 280.122 394.526L271.81 375.04L275.628 393.797C267.817 392.41 260.591 390.502 254.061 388.365L261.144 369.815L250.173 387.038C243.978 384.836 238.493 382.466 233.83 380.213L247.288 365.727L229.807 378.198C220.954 373.602 215.988 369.928 215.988 369.928C215.988 369.928 230.59 354.682 248.056 349.726C236.582 349.15 197.199 338.2 197.398 332.172C197.459 330.335 192.295 317.389 197.398 314.204C208.434 307.317 221.442 304.175 229.381 300.35C230.328 299.894 229.458 297.899 228.194 298.162C225.094 298.809 220.656 299.787 216.372 300.921C226.733 291.443 238.039 286.15 238.039 286.15C238.039 286.15 251 271.626 254.137 267.46C257.276 263.288 242.395 266.278 242.395 266.278C242.395 266.278 256.341 256.404 262.285 254.657C264.159 251.475 272.823 238.641 272.823 238.641C272.823 238.641 268.693 237.904 265.572 238.057C266.535 235.475 280.288 227.85 280.288 227.85L285.889 216.658C285.889 216.658 282.794 215.825 278.636 217.499C280.414 214.236 291.643 209.021 291.643 209.021C291.643 209.021 296.025 200.944 298.13 195.888C300.091 191.177 302.311 182.488 302.605 181.325L302.609 181.307L302.591 181.328C301.704 182.206 289.851 183.848 281.589 178.396L281.327 178.22C270.669 170.921 263.914 154.785 265.277 150.416Z" fill="black"/>
<path d="M465.94 217.756C464.365 282.11 437.728 302.415 434.438 308.168C434.438 308.168 442.943 315.413 460.269 322.344C477.596 329.274 507.838 335.575 507.838 335.575C486.101 353.531 416.796 354.161 402.047 347.181C402.047 347.181 394.146 356.044 390.792 359.123C390.792 359.123 398.21 370.857 405.14 376.528C412.071 382.198 431.093 390.526 431.093 390.526C417.741 393.992 385.924 393.539 363.656 385.491C349.557 391.574 335.107 391.49 331.444 391.355C331.015 391.339 330.753 390.914 330.938 390.526C336.521 378.794 343.057 357.407 342.746 342.638C346.669 346.617 354.047 357.69 360.132 371.23C358.718 350.893 348.791 320.584 342.775 303.151C342.803 302.154 342.828 301.165 342.854 300.176L342.872 299.469C346.062 303.097 352.931 310.377 357.437 320.397C356.416 305.705 349.868 286.611 343.912 271.573C344.011 269.549 344.119 267.543 344.23 265.576C346.774 269.205 352.802 275.309 355.856 282.11C355.101 271.203 352.852 258.1 345.527 245.193C345.637 243.669 345.755 242.146 345.859 240.679C348.097 244.106 353.507 248.806 356.082 254.544C355.43 245.133 353.276 232.095 346.808 222.867C348.913 211.613 350.566 200.534 351.165 189.512C351.48 183.723 350.874 177.321 350.52 171.546C360.128 191.736 369.91 202.518 379.866 203.89C394.798 205.948 411.21 180.257 405.589 143.413C402.477 123.003 421.425 106.976 421.425 106.976C424.277 104.415 428.815 105.673 429.941 109.337C429.941 109.337 467.515 153.402 465.94 217.756Z" fill="black"/>
<path fill-rule="evenodd" clip-rule="evenodd" d="M286.633 151.516C288.083 147.056 292.887 144.604 297.344 146.053C299.362 146.709 300.521 149.02 301.543 150.711C302.777 152.753 303.605 154.333 302.812 156.772C301.363 161.233 296.551 163.682 292.087 162.231C287.63 160.783 285.184 155.976 286.633 151.516Z" fill="white"/>
<path d="M294.882 157.708C296.796 157.708 298.348 156.156 298.348 154.242C298.348 152.329 296.796 150.777 294.882 150.777C292.969 150.777 291.417 152.329 291.417 154.242C291.417 156.156 292.969 157.708 294.882 157.708Z" fill="black"/>
<path fill-rule="evenodd" clip-rule="evenodd" d="M284.882 176.142C291.477 174.593 304.356 176.086 305.658 181.602C305.957 182.869 305.117 184.141 303.88 184.547C302.324 185.058 300.546 185.751 298.644 186.564C298.677 186.456 298.693 186.402 298.693 186.402C298.693 186.402 268.078 196.848 261.819 204.35C255.558 211.85 253.853 222.629 252.374 224.187L235.878 192.246C232.734 186.094 231.052 174.702 237.135 171.298L260.761 157.405L260.851 157.402C260.851 157.402 274.599 147.674 284.882 176.142Z" fill="#D18D1E"/>
<path fill-rule="evenodd" clip-rule="evenodd" d="M272.361 174.547C270.092 175.996 263.139 167.949 261.098 165.494C260.869 165.22 261.071 164.797 261.426 164.8C263.706 164.82 269.689 165.007 271.74 166.387C274.303 168.105 275.035 172.845 272.361 174.547Z" fill="#854205"/>
<path fill-rule="evenodd" clip-rule="evenodd" d="M271.357 172.363C269.554 173.545 263.323 166.17 263.462 165.744C263.6 165.317 269.273 165.61 270.979 166.775C272.692 167.938 273.16 171.184 271.357 172.363Z" fill="black"/>
<path fill-rule="evenodd" clip-rule="evenodd" d="M305.423 180.476C305.423 180.476 302.681 181.805 276.085 191.435C271.411 193.127 265.193 201.191 265.193 201.191L305.485 184.046C305.727 183.944 305.921 183.765 306.027 183.526C306.483 182.492 306.331 181.435 305.423 180.476Z" fill="#854605"/>
<path d="M349.752 93.5219C355.262 97.4708 354.564 104.71 347.659 115.239C345.189 119.005 339.28 125.077 329.93 133.454C329.267 121.6 330.262 113 332.916 107.654C334.097 105.274 335.865 103.02 338.22 100.891L341.323 108.053L341.483 98.2859C343.838 96.6118 346.594 95.0238 349.752 93.5219Z" fill="black"/>
<path d="M329.556 128.91C324.289 123.85 321.142 119.56 320.115 116.04C319.088 112.52 319.678 108.045 321.885 102.614C326.054 102.08 328.767 105.632 330.024 113.27C330.473 116.002 330.317 121.215 329.556 128.91Z" fill="black"/>
<path fill-rule="evenodd" clip-rule="evenodd" d="M298.748 181.927C300.97 182.175 303.706 180.979 307.012 177.865L308.308 179.241C304.882 182.469 301.607 184.148 298.538 183.805C297.67 183.708 297.043 183.802 296.543 183.984C296.036 184.167 295.602 184.461 295.14 184.852C294.947 185.015 294.743 185.204 294.522 185.408C293.752 186.121 292.789 187.012 291.457 187.581C289.769 188.302 288.652 188.359 287.714 188.293C287.506 188.278 287.326 188.261 287.165 188.246C286.597 188.192 286.257 188.16 285.741 188.323C285 188.557 284.186 189.05 283.197 189.715C282.993 189.853 282.782 189.997 282.565 190.145C281.768 190.689 280.886 191.292 279.947 191.825C278.708 192.528 277.386 192.736 276.311 192.906C276.23 192.919 276.151 192.931 276.073 192.944C274.881 193.135 274.081 193.318 273.495 193.842C273.018 194.269 272.833 194.616 272.572 195.103C272.461 195.311 272.336 195.544 272.17 195.819C271.619 196.73 270.809 197.633 268.96 198.597C266.934 199.653 265.462 201.454 264.577 204.108L262.784 203.51C263.797 200.474 265.554 198.241 268.087 196.921C269.657 196.102 270.197 195.428 270.552 194.841C270.63 194.713 270.709 194.564 270.796 194.402C271.097 193.837 271.489 193.101 272.235 192.433C273.291 191.489 274.645 191.259 275.773 191.078C275.832 191.068 275.89 191.059 275.949 191.05C277.082 190.869 278.085 190.708 279.014 190.181C279.878 189.691 280.674 189.147 281.462 188.609C281.689 188.454 281.915 188.3 282.142 188.147C283.121 187.489 284.14 186.846 285.171 186.52C286.086 186.231 286.861 186.31 287.478 186.373C287.609 186.386 287.732 186.399 287.848 186.407C288.512 186.454 289.325 186.437 290.714 185.843C291.717 185.414 292.357 184.825 293.082 184.157C293.343 183.916 293.615 183.665 293.92 183.408C294.467 182.946 295.097 182.497 295.899 182.207C296.707 181.914 297.631 181.802 298.748 181.927Z" fill="black"/>
<path fill-rule="evenodd" clip-rule="evenodd" d="M318.772 378.763L329.904 401.545C329.904 401.545 335.94 398.818 341.885 402.297C348.157 399.324 357.208 400.689 362.436 405.778C367.666 410.866 369.892 419.098 369.892 419.098C369.892 419.098 372.79 439.303 364.169 446.104C362.028 447.793 361.711 449.943 357.839 442.038C353.967 434.134 320.564 430.721 320.564 430.721C320.564 430.721 304.91 438.219 299.885 428.873C297.162 422.164 299.407 414.864 299.407 414.864C299.407 414.864 301.529 405.778 306.505 403.977C304.114 392.824 300.628 382.67 305.611 379.215C309.011 376.857 316.85 371.551 318.772 378.763Z" fill="#010103"/>
<path fill-rule="evenodd" clip-rule="evenodd" d="M327.14 407.981C327.14 407.981 319.322 403 313.667 404.4C308.012 405.799 305.137 410.217 303.332 415.002C301.527 419.787 306.512 431.777 309.216 432.975C311.921 434.174 313.667 430.335 313.667 420.583C313.667 415.002 328.149 414.738 328.149 414.738L327.14 407.981Z" fill="#CC7910"/>
<path fill-rule="evenodd" clip-rule="evenodd" d="M118.339 508.04C118.339 509.488 119.514 510.662 120.965 510.662H391.043C392.493 510.662 393.669 509.488 393.669 508.04V418.777C393.669 417.329 392.493 416.155 391.043 416.155H120.965C119.514 416.155 118.339 417.329 118.339 418.777V508.04Z" fill="black"/>
<path d="M159.334 489.319C154.723 489.319 151.395 487.895 149.35 485.048C147.345 482.162 146.343 478.012 146.343 472.599V456.24C146.343 450.667 147.385 446.477 149.47 443.67C151.555 440.824 155.144 439.4 160.236 439.4C165.047 439.4 168.495 440.603 170.58 443.009C172.665 445.374 173.708 448.903 173.708 453.594V456.12H165.228V453.353C165.228 451.589 165.107 450.186 164.867 449.143C164.666 448.101 164.205 447.299 163.484 446.738C162.802 446.176 161.759 445.896 160.356 445.896C158.873 445.896 157.77 446.257 157.048 446.978C156.327 447.7 155.845 448.622 155.605 449.745C155.404 450.867 155.304 452.331 155.304 454.135V474.524C155.304 477.29 155.665 479.355 156.387 480.718C157.149 482.081 158.552 482.763 160.597 482.763C162.601 482.763 163.985 482.041 164.747 480.598C165.548 479.154 165.949 476.989 165.949 474.103V469.532H160.717V463.938H173.948V488.657H168.175L167.573 483.906C166.05 487.514 163.303 489.319 159.334 489.319Z" fill="#D18D1F"/>
<path d="M180.72 439.942H192.448C197.58 439.942 201.409 440.924 203.935 442.889C206.461 444.813 207.724 448.141 207.724 452.872C207.724 455.96 207.263 458.486 206.341 460.45C205.459 462.375 203.915 463.778 201.71 464.66L208.506 488.657H199.605L193.771 466.344H189.561V488.657H180.72V439.942ZM192.388 460.811C194.914 460.811 196.698 460.23 197.74 459.067C198.823 457.904 199.364 456 199.364 453.353C199.364 450.787 198.883 448.923 197.921 447.76C196.999 446.597 195.315 446.016 192.869 446.016H189.561V460.811H192.388Z" fill="#D18D1F"/>
<path d="M221.71 439.942H231.212L240.955 488.657H232.716L230.791 477.41H222.311L220.327 488.657H211.967L221.71 439.942ZM229.829 471.757L226.521 451.309L223.213 471.757H229.829Z" fill="#D18D1F"/>
<path d="M245.855 439.942H257.342C261.271 439.942 264.359 440.483 266.604 441.565C268.849 442.608 270.433 444.232 271.355 446.437C272.317 448.602 272.799 451.489 272.799 455.098V472.84C272.799 476.528 272.317 479.515 271.355 481.801C270.433 484.086 268.869 485.81 266.664 486.973C264.459 488.096 261.472 488.657 257.703 488.657H245.855V439.942ZM257.462 482.462C259.427 482.462 260.85 482.122 261.732 481.44C262.614 480.758 263.176 479.816 263.416 478.613C263.657 477.37 263.777 475.546 263.777 473.14V454.496C263.777 452.331 263.637 450.687 263.356 449.564C263.075 448.442 262.474 447.62 261.552 447.099C260.67 446.537 259.266 446.257 257.342 446.257H254.696V482.462H257.462Z" fill="#D18D1F"/>
<path d="M279.332 439.942H293.646C301.946 439.942 306.096 444.553 306.096 453.775C306.096 462.595 301.746 467.006 293.045 467.006H288.173V488.657H279.332V439.942ZM291.602 460.751C294.007 460.751 295.631 460.25 296.473 459.248C297.315 458.205 297.736 456.361 297.736 453.714C297.736 451.79 297.596 450.326 297.315 449.324C297.034 448.282 296.453 447.5 295.571 446.978C294.729 446.457 293.406 446.197 291.602 446.197H288.173V460.751H291.602Z" fill="#F2F2F2"/>
<path d="M315.8 439.942H325.302L335.045 488.657H326.806L324.881 477.411H316.401L314.417 488.657H306.057L315.8 439.942ZM323.919 471.757L320.611 451.309L317.303 471.757H323.919Z" fill="#F2F2F2"/>
<path d="M347.222 439.942H356.724L366.468 488.657H358.228L356.303 477.411H347.823L345.839 488.657H337.479L347.222 439.942ZM355.341 471.757L352.033 451.309L348.726 471.757H355.341Z" fill="#F2F2F2"/>
<path fill-rule="evenodd" clip-rule="evenodd" d="M432.863 112.974C433.513 115.476 438.533 136.286 432.863 136.286C424.608 136.286 439.026 109.509 424.608 128.411C420.873 133.308 406.715 128.411 405.77 144.477C401.99 122.11 415.221 118.308 408.649 119.473C407.853 119.198 397.832 138.1 395.675 140.87C388.853 149.643 349.563 160.437 349.563 160.437C357.976 140.999 366.584 126.956 375.389 118.308C417.426 79.2669 433.737 113.063 432.863 112.974Z" fill="#66AA66"/>
<path fill-rule="evenodd" clip-rule="evenodd" d="M205.101 97.5384C207.938 101.875 240.609 57.4519 244.794 59.2161C251.247 61.9372 259.304 61.5983 268.963 58.1995C260.455 51.4823 256.274 47.851 256.418 47.3056C256.661 46.3882 278.883 53.7924 282.554 54.2853C289.665 55.2463 298.978 27.9182 312.839 38.944C326.7 49.9698 312.524 78.9519 320.399 78.9519C324.735 78.9519 317.249 60.3656 321.974 49.6547C326.7 38.9439 327.047 31.2269 327.047 31.2269C305.332 21.9855 288.123 17.4851 275.419 17.7257C255.962 18.0942 226.522 47.3056 205.101 97.5384Z" fill="#66AA66"/>
<path d="M303.416 216.427L289.567 188.283C287.033 187.837 285.874 188.123 284.012 189.053L295.41 220.144C295.41 220.144 296.522 218.239 298.835 217.401C301.148 216.562 303.416 216.427 303.416 216.427Z" fill="#CF9254"/>
<path fill-rule="evenodd" clip-rule="evenodd" d="M290.203 187.435L304.891 217.285L303.473 217.37L303.472 217.37L303.47 217.37L303.455 217.371C303.441 217.372 303.419 217.374 303.389 217.376C303.33 217.381 303.239 217.389 303.123 217.401C302.889 217.425 302.552 217.466 302.144 217.532C301.324 217.665 300.241 217.897 299.157 218.289C298.17 218.647 297.43 219.237 296.931 219.747C296.684 220.001 296.501 220.23 296.382 220.392C296.323 220.472 296.281 220.535 296.255 220.575C296.242 220.595 296.233 220.61 296.228 220.617L296.225 220.622L296.225 220.623L295.214 222.355L282.833 188.585L283.589 188.207C284.553 187.726 285.41 187.372 286.391 187.218C287.372 187.064 288.409 187.12 289.731 187.352L290.203 187.435ZM301.978 215.645L288.935 189.138C287.976 188.996 287.288 188.991 286.684 189.086C286.2 189.162 285.736 189.307 285.197 189.54L295.731 218.274C296.366 217.657 297.289 216.956 298.513 216.512C299.742 216.067 300.949 215.811 301.842 215.667C301.888 215.659 301.933 215.652 301.978 215.645Z" fill="black"/>
<path d="M304.776 217.221C305.193 216.006 303.68 215.973 302.871 216.109C300.626 216.623 295.891 217.944 294.911 219.123C293.932 220.302 295.244 221.262 296.022 221.595L304.657 238.672L310.145 236.769C308.182 230.759 304.358 218.436 304.776 217.221Z" fill="#C4C4C4"/>
<path fill-rule="evenodd" clip-rule="evenodd" d="M303.053 217.037C301.953 217.29 300.257 217.737 298.722 218.261C297.947 218.526 297.233 218.804 296.664 219.078C296.057 219.371 295.743 219.602 295.638 219.727C295.507 219.886 295.507 219.963 295.507 219.969C295.507 219.982 295.51 220.033 295.58 220.132C295.741 220.361 296.086 220.595 296.394 220.726L296.71 220.861L305.128 237.509L308.96 236.179C307.995 233.199 306.705 229.084 305.66 225.459C305.084 223.462 304.578 221.601 304.242 220.157C304.075 219.437 303.945 218.803 303.871 218.301C303.834 218.05 303.809 217.815 303.801 217.608C303.796 217.456 303.796 217.239 303.85 217.023C303.771 217.01 303.673 217.001 303.558 217C303.381 216.998 303.202 217.014 303.053 217.037ZM305.69 217.467C305.833 217.013 305.848 216.512 305.594 216.055C305.34 215.6 304.918 215.374 304.583 215.262C303.938 215.046 303.175 215.1 302.715 215.177L302.688 215.182L302.661 215.188C301.515 215.45 299.737 215.917 298.112 216.472C297.3 216.75 296.507 217.055 295.842 217.376C295.215 217.679 294.57 218.055 294.185 218.519C293.829 218.947 293.622 219.432 293.617 219.95C293.612 220.46 293.802 220.891 294.035 221.221C294.385 221.716 294.893 222.077 295.323 222.307L304.187 239.836L311.332 237.357L311.044 236.475C310.064 233.477 308.621 228.905 307.476 224.935C306.903 222.948 306.408 221.125 306.083 219.729C305.92 219.029 305.804 218.453 305.741 218.026C305.71 217.811 305.694 217.651 305.69 217.542C305.689 217.507 305.689 217.483 305.69 217.467Z" fill="black"/>
<path fill-rule="evenodd" clip-rule="evenodd" d="M303.594 218.524C303.601 218.697 303.465 218.844 303.291 218.85C300.081 218.974 297.832 220.292 297.137 220.902C297.007 221.017 296.807 221.004 296.693 220.874C296.578 220.743 296.591 220.544 296.721 220.429C297.524 219.724 299.91 218.35 303.267 218.221C303.441 218.214 303.587 218.35 303.594 218.524Z" fill="#666666"/>
<path d="M313.363 239.367C312.33 236.138 308.579 235.481 306.833 235.556C305.087 235.631 298.85 241.11 299.891 251.201C300.872 260.714 304.989 266.213 308.187 266.985C306.419 263.765 308.279 261.203 310.23 257.235C314.132 249.299 314.655 243.404 313.363 239.367Z" fill="#333333"/>
<path d="M313.612 239.772C312.578 236.543 307.969 247.729 306.223 247.804C304.477 247.879 299.099 241.515 300.139 251.606C301.12 261.119 305.238 266.618 308.435 267.39C306.667 264.17 308.527 261.608 310.478 257.64C314.38 249.704 314.903 243.809 313.612 239.772Z" fill="#66AA66"/>
<path fill-rule="evenodd" clip-rule="evenodd" d="M307.227 247.524C307.07 247.686 306.912 247.827 306.755 247.93C306.601 248.031 306.425 248.111 306.237 248.119L306.223 247.804L306.237 248.119C305.936 248.132 305.6 248.01 305.283 247.86C304.956 247.706 304.594 247.496 304.231 247.283L304.23 247.283C303.482 246.845 302.725 246.404 302.067 246.257C301.746 246.185 301.481 246.192 301.266 246.28C301.059 246.365 300.857 246.543 300.691 246.899C300.345 247.638 300.193 249.055 300.453 251.574C300.939 256.293 302.203 260.002 303.728 262.617C305.032 264.852 306.506 266.257 307.826 266.848C307.242 265.416 307.323 264.082 307.762 262.7C308.124 261.557 308.741 260.355 309.421 259.032C309.674 258.54 309.935 258.031 310.195 257.501C314.079 249.603 314.568 243.796 313.312 239.868C313.195 239.503 313.082 239.502 313.065 239.502L313.065 239.502C313.03 239.502 312.963 239.515 312.857 239.579C312.752 239.641 312.629 239.74 312.488 239.879C311.915 240.444 311.206 241.508 310.452 242.716C310.241 243.053 310.028 243.401 309.814 243.749C309.272 244.63 308.729 245.514 308.228 246.242C307.879 246.751 307.54 247.198 307.227 247.524ZM313.073 238.872C313.515 238.878 313.771 239.238 313.912 239.676C315.238 243.821 314.682 249.806 310.761 257.779C310.485 258.339 310.215 258.866 309.957 259.368C309.288 260.671 308.708 261.801 308.362 262.891C307.895 264.366 307.877 265.719 308.711 267.239L309.054 267.864L308.361 267.696C306.641 267.281 304.754 265.627 303.184 262.935C301.606 260.229 300.32 256.432 299.826 251.638C299.565 249.112 299.695 247.54 300.12 246.632C300.339 246.164 300.644 245.854 301.027 245.697C301.403 245.543 301.81 245.553 302.205 245.642C302.96 245.81 303.786 246.293 304.492 246.706C304.511 246.717 304.53 246.728 304.548 246.739C304.918 246.955 305.255 247.15 305.552 247.29C305.859 247.435 306.074 247.495 306.21 247.49C306.239 247.488 306.304 247.472 306.41 247.403C306.513 247.335 306.634 247.231 306.773 247.087C307.05 246.799 307.365 246.385 307.709 245.885C308.201 245.171 308.73 244.31 309.267 243.435C309.483 243.083 309.701 242.73 309.917 242.382C310.663 241.188 311.41 240.057 312.046 239.43C312.207 239.271 312.371 239.135 312.534 239.037C312.696 238.941 312.879 238.87 313.073 238.872Z" fill="black"/>
<path d="M322.881 126.226C325.394 123.922 321.193 123.806 318.778 124.036C316.394 124.207 310.548 124.337 306.232 123.49C300.836 122.433 295.007 124.334 292.662 127.868C290.317 131.401 284.219 129.513 286.399 132.728C288.58 135.943 294.162 129.352 297.89 128.38C301.618 127.408 297.864 133.152 292.588 138.311C287.312 143.47 288.957 146.399 293.829 146.721C298.7 147.043 299.477 137.431 300.362 134.485C301.247 131.539 305.816 129.421 309.45 128.627C313.083 127.832 319.738 129.106 322.881 126.226Z" fill="#66AA66"/>
<path d="M276.317 146.031C276.916 148.63 277.651 153.58 275.795 152.589C273.476 151.351 273.335 146.034 276.317 146.031Z" fill="#66AA66"/>
<path d="M284.032 137.161C283.086 138.935 281.484 140.131 279.915 139.293C277.312 138.586 285.431 135.401 284.032 137.161Z" fill="#66AA66"/>
<path fill-rule="evenodd" clip-rule="evenodd" d="M336.843 407.981C336.843 407.981 345.638 403 352.001 404.4C358.362 405.799 361.597 410.217 363.627 415.002C365.658 419.787 360.05 431.777 357.008 432.975C353.965 434.174 352.001 430.335 352.001 420.583C352.001 415.002 335.709 414.738 335.709 414.738L336.843 407.981Z" fill="#CC7910"/>
<path fill-rule="evenodd" clip-rule="evenodd" d="M358.678 411.01C356.393 408.792 352.425 409.81 354.62 413.212C356.816 416.613 357.584 416.512 361.535 421.195C363.337 418.042 360.963 413.228 358.678 411.01Z" fill="#010103"/>
<path fill-rule="evenodd" clip-rule="evenodd" d="M317.139 382.666C317.139 382.666 326.943 405.595 332.559 410.168C328.196 414.74 315.945 415.511 309.569 412.287C310.545 403.678 308.478 393.049 306.913 386.67C305.927 382.65 309.008 378.544 313.093 378.927C314.946 379.102 316.56 380.077 317.139 382.666Z" fill="#CC7910"/>
<path fill-rule="evenodd" clip-rule="evenodd" d="M323.122 407.981C323.122 407.981 331.872 403 338.202 404.4C344.531 405.799 347.749 410.217 349.769 415.002C351.789 419.787 346.211 431.777 343.184 432.975C340.156 434.174 338.202 430.335 338.202 420.583C338.202 415.335 318.698 416.019 318.698 416.019L323.122 407.981Z" fill="#CC7910"/>
<path fill-rule="evenodd" clip-rule="evenodd" d="M347.049 420.356C347.049 417.053 342.861 415.72 341.889 417.71C340.916 419.7 342.08 423.381 341.379 430.032C345.13 428.967 347.049 423.659 347.049 420.356Z" fill="#010103" fill-opacity="0.1"/>
<path opacity="0.1" fill-rule="evenodd" clip-rule="evenodd" d="M349.952 416.192C349.952 416.192 348.512 410.093 342.639 407.12C345.238 406.542 347.876 407.6 347.876 407.6C355.875 409.363 357.76 417.407 357.76 417.407L349.952 416.192Z" fill="#010103"/>
<path fill-rule="evenodd" clip-rule="evenodd" d="M311.138 416.207L334.449 417.407C334.449 417.407 317.957 404.043 311.138 416.207Z" fill="#010103" fill-opacity="0.1"/>
<path opacity="0.3" fill-rule="evenodd" clip-rule="evenodd" d="M305.1 386.293C305.759 385.03 306.572 384.024 307.617 383.124C308.644 382.237 309.891 381.517 311.277 381.163C312.661 380.844 314.154 380.888 315.456 381.32C316.143 381.46 316.719 381.816 317.345 382.066C317.921 382.4 318.45 382.792 318.994 383.151C319.425 383.437 319.545 384.019 319.26 384.45C318.996 384.85 318.479 384.982 318.062 384.773L317.947 384.715C316.926 384.205 315.925 383.707 314.89 383.48C313.859 383.186 312.825 383.271 311.856 383.507C310.874 383.726 309.933 384.217 309.1 384.897C308.292 385.576 307.489 386.444 306.908 387.281L306.855 387.358C306.531 387.825 305.891 387.94 305.425 387.616C304.994 387.316 304.863 386.747 305.1 386.293Z" fill="#010103" fill-opacity="0.3"/>
<path opacity="0.3" fill-rule="evenodd" clip-rule="evenodd" d="M305.769 390.567C306.574 389.246 307.539 388.226 308.732 387.342C309.905 386.469 311.279 385.78 312.771 385.454C314.261 385.17 315.838 385.214 317.253 385.634C317.992 385.769 318.631 386.12 319.316 386.362C319.955 386.691 320.551 387.08 321.16 387.436C321.602 387.701 321.747 388.275 321.483 388.718C321.238 389.131 320.723 389.286 320.296 389.091L320.187 389.04C319.036 388.528 317.9 388.034 316.732 387.804C315.567 387.51 314.395 387.59 313.284 387.811C312.161 388.018 311.08 388.506 310.105 389.186C309.156 389.867 308.212 390.754 307.521 391.635L307.462 391.712C307.118 392.163 306.475 392.249 306.026 391.905C305.61 391.585 305.506 391.007 305.769 390.567Z" fill="#010103" fill-opacity="0.3"/>
<path opacity="0.3" fill-rule="evenodd" clip-rule="evenodd" d="M306.436 394.838C307.39 393.458 308.505 392.425 309.846 391.555C311.167 390.697 312.667 390.041 314.264 389.744C315.86 389.492 317.524 389.537 319.049 389.945C319.839 390.076 320.543 390.42 321.285 390.656C321.988 390.98 322.65 391.366 323.326 391.718C323.779 391.962 323.95 392.529 323.706 392.983C323.478 393.409 322.967 393.587 322.53 393.406L322.426 393.362C321.144 392.85 319.874 392.358 318.573 392.124C317.274 391.832 315.966 391.907 314.712 392.112C313.448 392.308 312.226 392.792 311.109 393.472C310.019 394.153 308.934 395.062 308.134 395.987L308.068 396.065C307.705 396.498 307.059 396.555 306.627 396.192C306.224 395.851 306.15 395.266 306.436 394.838Z" fill="#010103" fill-opacity="0.3"/>
<path opacity="0.3" fill-rule="evenodd" clip-rule="evenodd" d="M307.104 399.111C308.205 397.675 309.472 396.627 310.961 395.772C312.428 394.929 314.055 394.305 315.758 394.036C317.459 393.819 319.209 393.864 320.846 394.259C321.687 394.386 322.455 394.725 323.256 394.952C324.021 395.272 324.751 395.654 325.492 396.003C325.957 396.227 326.153 396.785 325.929 397.252C325.719 397.691 325.211 397.891 324.764 397.725L324.665 397.687C323.252 397.174 321.85 396.684 320.415 396.448C318.982 396.157 317.538 396.228 316.141 396.416C314.735 396.601 313.374 397.081 312.115 397.762C310.884 398.444 309.657 399.373 308.747 400.342L308.675 400.421C308.292 400.837 307.644 400.864 307.228 400.481C306.839 400.122 306.793 399.527 307.104 399.111Z" fill="#010103" fill-opacity="0.3"/>
<path opacity="0.3" fill-rule="evenodd" clip-rule="evenodd" d="M307.771 403.385C309.02 401.89 310.439 400.828 312.075 399.988C313.69 399.16 315.444 398.568 317.252 398.327C319.059 398.144 320.894 398.19 322.643 398.573C323.535 398.694 324.367 399.028 325.226 399.248C326.054 399.563 326.851 399.943 327.657 400.287C328.133 400.49 328.356 401.042 328.152 401.519C327.96 401.971 327.456 402.194 326.998 402.043L326.904 402.012C325.361 401.497 323.825 401.011 322.255 400.771C320.689 400.48 319.108 400.547 317.569 400.72C316.022 400.893 314.521 401.369 313.12 402.051C311.748 402.734 310.38 403.683 309.36 404.696L309.281 404.775C308.879 405.175 308.229 405.173 307.83 404.77C307.454 404.39 307.437 403.787 307.771 403.385Z" fill="#010103" fill-opacity="0.3"/>
<path fill-rule="evenodd" clip-rule="evenodd" d="M346.87 419.575C346.299 416.564 342.762 415.318 342.646 419.25C342.529 423.182 344.01 421.193 343.708 429.401C346.722 427.766 347.44 422.585 346.87 419.575Z" fill="#010103"/>
<path fill-rule="evenodd" clip-rule="evenodd" d="M307.988 380.165C307.988 380.165 307.326 380.915 307.632 384.567C307.939 388.219 311.768 404.648 311.768 404.648L308.72 406.045L304.838 384.567C304.838 384.567 306.753 380.588 307.988 380.165Z" fill="#010103" fill-opacity="0.1"/>
<path fill-rule="evenodd" clip-rule="evenodd" d="M148.647 315.249C140.472 315.249 134.975 320.296 131.741 324.911C130.22 327.08 130.115 331.496 131.024 336.002C132.087 341.271 134.425 346.358 136.266 347.674C137.111 348.278 137.848 348.479 138.482 348.464C139.26 348.446 139.985 348.131 140.648 347.387C141.474 346.462 142.248 344.548 143.262 341.777C143.977 339.823 144.857 337.415 146.087 334.647C146.834 332.966 147.723 331.86 148.758 331.258C149.852 330.621 151.073 330.594 152.306 330.879C158.078 332.214 164.207 339.814 164.207 339.814C164.207 339.814 166.809 343.042 168.648 346.933L164.416 326.305C164.416 326.305 156.821 315.249 148.647 315.249Z" fill="#CC7910"/>
<path d="M162.733 340.508C162.818 340.608 162.882 340.685 162.924 340.735L164.325 337.545C163.637 336.786 162.656 335.758 161.484 334.684C159.201 332.59 155.97 330.107 152.661 329.342C151.192 329.002 149.523 328.987 147.966 329.893C146.54 330.723 145.47 332.156 144.648 334.006C143.401 336.811 142.507 339.254 141.794 341.202L141.783 341.234C141.276 342.618 140.846 343.742 140.449 344.625C140.04 345.533 139.72 346.06 139.474 346.335C139.077 346.781 138.753 346.879 138.445 346.886C138.204 346.892 137.796 346.829 137.181 346.389C136.947 346.223 136.582 345.84 136.13 345.161C135.695 344.506 135.236 343.661 134.788 342.669C133.891 340.685 133.077 338.21 132.568 335.69C132.134 333.537 131.95 331.442 132.044 329.664C132.141 327.842 132.519 326.547 133.03 325.818C134.558 323.637 136.574 321.414 139.123 319.723L141.446 314.985C136.432 316.907 132.82 320.626 130.452 324.004C129.442 325.445 129.008 327.442 128.899 329.497C128.787 331.596 129.006 333.962 129.48 336.315C130.035 339.063 130.921 341.766 131.918 343.972C132.417 345.075 132.955 346.078 133.508 346.911C134.047 347.72 134.664 348.467 135.351 348.959C136.427 349.728 137.491 350.066 138.519 350.042C139.767 350.012 140.892 349.481 141.822 348.439C142.403 347.789 142.882 346.896 143.32 345.923C143.769 344.925 144.233 343.707 144.74 342.32L144.744 342.309C145.459 340.358 146.322 337.998 147.526 335.289C148.199 333.776 148.906 332.996 149.549 332.622C150.18 332.255 150.953 332.186 151.952 332.417C154.414 332.986 157.133 334.972 159.357 337.012C160.44 338.004 161.352 338.96 161.993 339.667C162.313 340.02 162.564 340.309 162.733 340.508Z" fill="black"/>
<path fill-rule="evenodd" clip-rule="evenodd" d="M134.499 332.942C135.48 329.875 139.685 329.633 139.395 333.908C139.106 338.183 138.341 338.329 137.08 344.518C133.787 341.817 133.518 336.009 134.499 332.942Z" fill="#010103"/>
<path fill-rule="evenodd" clip-rule="evenodd" d="M134.817 333.582C135.417 330.418 139.562 329.665 139.795 333.943C140.027 338.221 139.286 338.46 138.787 344.757C135.19 342.479 134.216 336.747 134.817 333.582Z" fill="#010103" fill-opacity="0.1"/>
<path fill-rule="evenodd" clip-rule="evenodd" d="M172.629 318.679C172.629 318.679 172.091 312.078 166.175 308.566C139.587 296.399 132.774 328.264 140.364 328.774C141.526 328.852 152.39 324.057 153.447 324.173C156.597 324.518 157.322 329.016 163.213 336.481C165.091 342.14 152.173 346.226 150.983 350.286C149.629 354.905 156.197 356.319 162.488 356.319C169.945 356.319 177.168 351.217 177.168 351.217C177.168 351.217 182.661 345.546 181.826 340.321C192.724 337.003 203.279 335.126 203.885 329.091C204.3 324.975 205.141 315.546 197.912 317.363L172.629 318.679Z" fill="#010103"/>
<path fill-rule="evenodd" clip-rule="evenodd" d="M168.637 324.71C168.637 324.71 176.775 329.146 178.295 334.78C179.815 340.415 177.352 345.075 174.05 348.977C170.748 352.878 157.865 354.323 155.508 352.535C153.15 350.746 155.654 347.354 164.168 342.626C169.04 339.92 162.249 327.103 162.249 327.103L168.637 324.71Z" fill="#CC7910"/>
<path fill-rule="evenodd" clip-rule="evenodd" d="M195.584 321.202C195.584 321.202 170.815 323.726 164.101 321.022C162.224 327.062 167.491 338.171 173.397 342.196C180.438 337.167 190.72 333.825 197.046 332.104C201.034 331.019 203.125 326.329 200.81 322.935C199.758 321.395 198.124 320.453 195.584 321.202Z" fill="#CC7910"/>
<path fill-rule="evenodd" clip-rule="evenodd" d="M170.548 328.165C170.548 328.165 170.666 318.104 166.384 313.251C162.102 308.399 156.69 307.73 151.537 308.284C146.383 308.838 138.613 319.526 139.03 322.752C139.447 325.978 143.743 325.825 152.257 321.097C157.129 318.391 165.702 336.011 165.702 336.011L170.548 328.165Z" fill="#CC7910"/>
<path opacity="0.3" fill-rule="evenodd" clip-rule="evenodd" d="M196.44 332.272C196.89 331.357 197.258 330.233 197.46 329.196C197.65 328.135 197.623 327.072 197.339 326.106C197.076 325.142 196.647 324.195 195.891 323.435C195.192 322.639 194.271 322.003 193.332 321.356L193.226 321.283C192.8 320.99 192.693 320.406 192.986 319.98C193.257 319.585 193.777 319.463 194.19 319.68C194.767 319.982 195.366 320.255 195.937 320.598C196.459 321.024 197.049 321.356 197.504 321.891C198.513 322.822 199.274 324.109 199.666 325.476C200.029 326.863 200.004 328.305 199.727 329.634C199.447 330.987 198.963 332.187 198.178 333.377C197.865 333.852 197.228 333.983 196.754 333.67C196.317 333.381 196.173 332.815 196.398 332.356L196.44 332.272Z" fill="#010103" fill-opacity="0.3"/>
<path opacity="0.3" fill-rule="evenodd" clip-rule="evenodd" d="M192.342 333.846C192.777 332.813 193.096 331.555 193.23 330.394C193.351 329.209 193.253 328.025 192.891 326.941C192.544 325.86 192.046 324.795 191.225 323.917C190.459 323.005 189.477 322.251 188.472 321.49L188.375 321.419C187.96 321.112 187.873 320.526 188.182 320.11C188.468 319.724 188.996 319.621 189.401 319.859C190.009 320.218 190.636 320.554 191.233 320.953C191.776 321.436 192.393 321.826 192.869 322.408C193.921 323.442 194.724 324.804 195.197 326.248C195.636 327.713 195.7 329.25 195.507 330.702C195.312 332.176 194.889 333.516 194.126 334.863C193.84 335.352 193.213 335.516 192.726 335.23C192.273 334.966 192.099 334.407 192.303 333.937L192.342 333.846Z" fill="#010103" fill-opacity="0.3"/>
<path opacity="0.3" fill-rule="evenodd" clip-rule="evenodd" d="M188.245 335.419C188.666 334.269 188.933 332.877 189 331.592C189.053 330.283 188.884 328.978 188.443 327.775C188.013 326.577 187.445 325.395 186.561 324.399C185.726 323.372 184.682 322.499 183.613 321.624L183.525 321.556C183.121 321.234 183.055 320.645 183.377 320.241C183.679 319.862 184.217 319.779 184.613 320.038C185.25 320.455 185.906 320.852 186.529 321.31C187.094 321.847 187.736 322.296 188.233 322.924C189.329 324.063 190.174 325.499 190.729 327.019C191.243 328.563 191.397 330.196 191.287 331.769C191.177 333.365 190.815 334.845 190.072 336.35C189.814 336.852 189.198 337.05 188.696 336.791C188.228 336.551 188.025 335.999 188.208 335.517L188.245 335.419Z" fill="#010103" fill-opacity="0.3"/>
<path opacity="0.3" fill-rule="evenodd" clip-rule="evenodd" d="M184.146 336.994C184.552 335.727 184.769 334.202 184.768 332.792C184.753 331.358 184.512 329.933 183.993 328.612C183.481 327.296 182.842 325.996 181.893 324.882C180.992 323.74 179.885 322.748 178.751 321.759L178.672 321.694C178.28 321.357 178.235 320.766 178.571 320.372C178.888 320.002 179.434 319.94 179.822 320.218C180.487 320.695 181.174 321.152 181.823 321.667C182.41 322.259 183.079 322.766 183.596 323.442C184.736 324.685 185.622 326.195 186.257 327.792C186.847 329.414 187.091 331.143 187.065 332.837C187.04 334.556 186.739 336.175 186.018 337.837C185.786 338.354 185.182 338.585 184.666 338.354C184.183 338.138 183.95 337.592 184.112 337.099L184.146 336.994Z" fill="#010103" fill-opacity="0.3"/>
<path opacity="0.3" fill-rule="evenodd" clip-rule="evenodd" d="M180.048 338.568C180.439 337.183 180.605 335.524 180.537 333.99C180.454 332.432 180.142 330.886 179.544 329.447C178.949 328.014 178.241 326.596 177.227 325.365C176.258 324.106 175.089 322.996 173.891 321.893L173.821 321.829C173.44 321.479 173.415 320.885 173.765 320.503C174.098 320.141 174.651 320.101 175.033 320.397C175.724 320.936 176.442 321.45 177.118 322.023C177.727 322.67 178.421 323.236 178.96 323.959C180.143 325.305 181.072 326.891 181.788 328.563C182.453 330.265 182.786 332.088 182.845 333.904C182.904 335.746 182.665 337.504 181.964 339.324C181.761 339.854 181.165 340.119 180.636 339.914C180.138 339.723 179.875 339.185 180.016 338.68L180.048 338.568Z" fill="#010103" fill-opacity="0.3"/>
<path fill-rule="evenodd" clip-rule="evenodd" d="M149.771 311.489C153.174 310.078 156.72 312.725 152.835 315.412C148.95 318.097 147.839 315.562 140.761 321.618C140.456 317.598 146.369 312.9 149.771 311.489Z" fill="#010103"/>
<path fill-rule="evenodd" clip-rule="evenodd" d="M149.472 312.102C152.709 310.342 156.512 312.604 152.928 315.682C149.344 318.759 147.975 316.355 141.568 323.119C140.845 319.153 146.236 313.861 149.472 312.102Z" fill="#010103" fill-opacity="0.1"/>
<path fill-rule="evenodd" clip-rule="evenodd" d="M201.593 333.173C201.593 333.173 201.259 334.117 197.923 335.619C194.586 337.12 178.388 341.73 178.388 341.73L178.645 345.078L199.278 338.068C199.278 338.068 201.822 334.461 201.593 333.173Z" fill="#010103" fill-opacity="0.1"/>
</g>
<defs>
<clipPath id="clip0">
<rect width="512" height="512" fill="white"/>
</clipPath>
</defs>
</svg>
